<svg version="1.1" xmlns="http://www.w3.org/2000/svg" viewBox="-36.0 -16.9 1510.7 710.5">
<rect x="-36.0" y="-16.9" width="1510.7" height="710.5" fill="#202124" />
<polyline points="" style="fill:none;stroke:#000000;stroke-width:2"/>
<polyline points="351.9 141.9,351.9 141.9,351.1 207.9,350.2 273.9,349.3 339.9,348.5 405.9,347.6 471.9,346.6 554.4" style="fill:none;stroke:#ffffff;stroke-width:2"/>
<polyline points="204.6 473.8,204.6 473.8,392.6 472.8,580.6 471.9,768.6 470.9,956.6 469.9,1144.6 469.0,1379.6 467.8" style="fill:none;stroke:#ffffff;stroke-width:2"/>
<polyline points="1355.6 457.1,1355.6 457.1,1383.6 464.5" style="fill:none;stroke:#ffffff;stroke-width:2"/>
<polyline points="1387.0 468.4,1387.0 468.4,1370.3 488.4" style="fill:none;stroke:#ffffff;stroke-width:2"/>
<polyline points="351.9 141.9,351.9 141.9,336.6 173.3" style="fill:none;stroke:#ffffff;stroke-width:2"/>
<polyline points="351.9 146.6,351.9 146.6,368.6 170.6" style="fill:none;stroke:#ffffff;stroke-width:2"/>
<polyline points="1415.0 478.4,1414.3 475.1,1413.0 475.1,1411.6 475.8,1411.3 476.2,1410.1 477.6,1409.3 478.9,1408.7 480.2,1407.8 482.0,1407.3 483.6,1407.0 485.1,1406.5 486.5,1406.2 487.6,1406.0 488.9,1405.9 489.9,1406.4 490.8,1407.1 491.6,1407.8 492.1,1408.7 492.7,1409.8 493.1,1410.7 493.3,1411.8 493.5,1412.9 493.6,1413.9 493.6,1414.7 493.7,1415.5 493.7,1416.3 493.7,1417.0 493.5,1417.7 493.1,1418.4 492.6,1418.8 492.0,1419.4 491.2,1419.9 490.4,1420.6 489.4,1421.2 488.6,1421.8 487.8,1422.2 486.8,1422.7 486.0,1423.0 485.2,1423.5 484.2,1423.8 483.1,1424.2 481.9,1424.5 480.6,1424.6 479.6,1424.7 478.5,1424.8 477.5,1424.9 476.4,1424.6 475.2,1424.2 474.0,1423.5 472.7,1422.8 471.7,1422.2 470.5,1421.2 469.6,1420.1 469.0,1419.0 468.3,1418.0 467.6,1416.9 467.2,1415.7 466.7,1414.8 466.4,1413.9 466.2,1413.1 466.1,1412.1 466.0,1411.2 465.9,1410.4 466.1,1409.7 466.5,1408.7 467.0,1408.1 467.5,1407.7 468.4,1407.5 469.1,1407.3 469.8,1407.2 470.8,1407.1 471.6,1407.3 472.4,1408.0 473.1,1408.6 473.6,1410.0 474.4,1411.3 474.8,1412.9 475.2,1414.4 475.4,1416.1 475.5,1417.6 475.6,1419.3 475.7,1421.1 475.4,1423.0 474.8,1424.6 473.9,1427.3 472.3,1429.5 470.7,1431.7 469.2,1433.5 467.7,1435.2 466.0,1436.8 464.5,1438.0 463.1,1438.8 461.1" style="fill:none;stroke:#ffffff;stroke-width:2"/>
<polyline points="344.6 347.2,348.9 346.9,349.5 346.8,350.2 346.7,350.8 346.6,351.4 346.6,352.1 346.3,352.7 346.1,353.4 346.0,354.1 346.0,354.4 345.9,354.7 345.3" style="fill:none;stroke:#ff0000;stroke-width:2"/>
<polyline points="337.9 220.6,335.2 220.6,336.6 219.9,337.9 219.9,338.2 219.6,339.2 219.5,340.2 219.4,341.3 219.1,342.8 218.9,344.1 218.5,346.3 218.0,348.0 217.5,350.2 217.2,352.0 217.0,353.3 216.8,354.7 216.8,355.8 216.7,356.8 216.6,357.7 216.6,358.5 216.6,359.8 216.9" style="fill:none;stroke:#ff0000;stroke-width:2"/>
<polyline points="277.3 224.6,278.6 222.6,279.9 221.2,285.1 215.7,285.8 215.0,287.1 213.1,288.3 211.5,289.1 210.2,289.9 209.2,290.3 208.3,290.6 207.7,290.8 207.3,291.0 208.2,291.1 209.1,291.1 210.1,291.5 211.8,291.6 213.3,291.7 215.0,291.8 216.8,291.8 218.6,291.9 221.8,291.9 225.5,292.2 225.6,292.3 226.5,292.4 226.9" style="fill:none;stroke:#ff0000;stroke-width:2"/>
<polyline points="275.3 340.5,273.9 341.8,273.9 343.8,273.3 345.8,273.4 346.3,273.0 347.4,272.9 348.8,272.8 350.1,272.7 351.5,272.7 352.8,272.9 354.7,273.3 356.0,274.6 357.1,275.8 358.1,277.1 358.6,278.3 359.0,279.6 359.3,280.9 359.2,282.0 358.9,282.9 358.2,284.0 357.3,284.6 356.3,285.3 355.1,285.7 353.9,286.0 352.4,286.2 351.0,286.3 349.9,286.1 348.7,285.8 347.4,285.1 346.4,284.1 345.2,283.1 344.0,281.9 343.0,280.4 342.1,278.5 341.0,276.1 340.4,274.2 340.0,272.7 339.7,271.5 339.6,270.5 339.4,269.9 339.3,269.4 339.6,269.2 339.9,269.3 340.7,269.5 341.9,269.9 343.1" style="fill:none;stroke:#ff0000;stroke-width:2"/>
<polyline points="301.9 352.5,301.9 354.0,301.2 353.3" style="fill:none;stroke:#ff0000;stroke-width:2"/>
<polyline points="307.9 334.5,307.9 339.2,308.6 340.5,308.6 342.5,308.6 342.7,308.6 343.1,309.4 342.8,310.1 342.4,310.7 342.0,311.4 341.7,312.3 341.3,313.1 341.0,313.9 340.8,314.6 340.7,315.3 340.7,316.0 340.6,316.7 340.6,317.4 340.8,318.0 341.2,318.4 341.7,319.0 342.5,319.3 343.5,319.8 344.6,320.0 345.8,320.2 346.7,320.3 347.6,320.4 348.1,320.5 348.7,320.5 349.1,319.4 349.6,318.4 349.9,317.2 350.1,316.3 350.5,315.2 350.7,314.3 350.9,313.4 351.0,312.7 350.8" style="fill:none;stroke:#ff0000;stroke-width:2"/>
<polyline points="309.3 329.8,311.9 329.2,313.6 328.6,314.2 328.3,314.8 328.2,315.5 328.1,316.1 327.7,316.8 327.5,317.4 327.4,318.1 327.1,319.0 326.9,319.8 326.8,321.1 326.1" style="fill:none;stroke:#ff0000;stroke-width:2"/>
<polyline points="331.9 483.8,329.9 482.4,328.6 482.4,326.9 482.7,326.3 483.1,325.7 483.6,325.0 484.2,324.7 485.0,324.1 486.0,323.6 487.2,323.3 488.4,322.7 489.9,322.5 491.3,322.3 492.4,322.2 493.6,322.4 494.6,323.0 495.5,323.6 496.0,324.5 496.7,325.5 497.0,326.3 497.3,327.4 497.4,328.6 497.5,330.1 497.6,331.4 497.4,332.8 497.0,333.9 496.3,335.1 495.6,336.1 494.4,337.0 493.5,337.8 492.4,338.3 491.2,338.6 490.2,338.8 489.4,339.0 488.6,338.8 487.5,338.4 486.7,337.7 485.6,336.2 484.2,334.9 483.1,333.6 482.2,332.6 481.3,331.3 480.8,330.7 480.2,329.9 479.8,329.2 479.6,328.8 479.4,328.2 479.3" style="fill:none;stroke:#ff0000;stroke-width:2"/>
<polyline points="353.9 507.8,352.6 508.4,351.2 509.8,350.6 511.1,350.1 511.7,349.8 512.5,349.6 513.4,349.5 514.5,349.4 515.4,349.4 516.5,349.3 517.7,349.3 518.9,349.6 520.2,350.2 521.2,351.4 522.7,352.5 523.7,353.8 524.4,355.0 525.1,356.3 525.5,357.6 525.8,358.9 526.0,360.0 526.2,361.2 525.7,362.1 524.9,362.7 524.0,363.4 522.7,364.0 520.5,364.4 518.9,364.7 517.3,364.9 515.8,364.4 514.4,364.0 513.2,362.9 512.0,361.8 511.3,360.4 510.5,358.7 510.0,357.0 509.7,355.4 510.1,353.6 511.0,352.1 512.6,350.6 514.8" style="fill:none;stroke:#ff0000;stroke-width:2"/>
<polyline points="430.6 466.5,430.6 465.1,430.3 463.2,429.9 463.9,429.7 464.9,429.5 465.9,429.1 467.4,429.0 469.0,428.8 470.7,428.7 472.6,428.7 474.2,428.6 476.5,428.6 481.6,428.6 484.6" style="fill:none;stroke:#ff0000;stroke-width:2"/>
<polyline points="530.5 462.5,531.2 463.8,531.2 467.1,531.5 472.7,531.6 474.3,532.0 476.0,532.1 477.0,532.6 477.7" style="fill:none;stroke:#ff0000;stroke-width:2"/>
<polyline points="601.8 464.5,600.5 464.5,600.5 465.8,600.5 471.7,600.5 478.1,600.5 484.2,600.5 486.2" style="fill:none;stroke:#ff0000;stroke-width:2"/>
<polyline points="676.5 463.8,676.5 465.1,676.2 469.0,676.0 472.6,675.7 474.5,675.5 476.1,675.4 477.7,675.3 479.4,675.3 481.0,675.2 482.4" style="fill:none;stroke:#ff0000;stroke-width:2"/>
<polyline points="752.5 462.5,752.5 464.5,752.2 474.1,752.1 476.3,752.0 478.4,751.9 480.3,751.9 482.3,751.9 483.7" style="fill:none;stroke:#ff0000;stroke-width:2"/>
<polyline points="831.8 463.1,831.8 464.5,831.5 469.2,831.4 471.7,831.0 473.9,830.8 476.0,830.7 478.1,830.6 479.8,830.6 481.2" style="fill:none;stroke:#ff0000;stroke-width:2"/>
<polyline points="904.4 463.8,903.1 464.5,903.1 465.8,902.4 467.8,902.5 468.3,902.5 469.1,902.5 470.1,902.4 473.7" style="fill:none;stroke:#ff0000;stroke-width:2"/>
<polyline points="981.1 461.1,981.7 462.5,981.7 463.8,982.0 465.5,982.1 466.6,982.5 468.3,983.0 470.1,983.5 471.6,984.1 473.1" style="fill:none;stroke:#ff0000;stroke-width:2"/>
<polyline points="1053.7 462.5,1053.7 464.5,1053.7 471.7,1053.7 476.4,1053.7 476.7,1054.0 479.0" style="fill:none;stroke:#ff0000;stroke-width:2"/>
<polyline points="1131.7 458.5,1131.7 459.8,1131.7 466.7,1132.4 473.1,1132.3 472.8,1132.6 474.6" style="fill:none;stroke:#ff0000;stroke-width:2"/>
<polyline points="437.8 342.8,439.1 340.5,439.6 339.6,439.6 341.5,439.4 341.6,438.9 342.2,438.5 343.1,438.1 344.0,436.1 347.7,435.8 348.1,435.3 349.0,434.9 349.9,434.5 350.6,434.2 351.2,433.8 352.0,433.4 352.6,433.2 353.2,432.9 353.7,432.5 354.2,432.3 354.5" style="fill:none;stroke:#a020f0;stroke-width:2"/>
<polyline points="831.5 232.2,836.1 231.8,837.4 231.8,837.8 231.6,838.7 231.3,839.6 231.2,840.4 231.1,841.3 231.0,842.0 230.9,842.7 230.9,843.2 230.9,843.6 230.9" style="fill:none;stroke:#a020f0;stroke-width:2"/>
<polyline points="974.0 471.2,974.5 470.3,976.3 468.9,976.8 469.0,977.8 468.9,978.9 468.9,980.3 468.7,982.0 468.6,983.7 468.4,985.7 468.1,987.5 467.9,989.4 467.8,991.0 467.7,992.6 467.6,994.1 467.4,995.5 467.3,997.0 466.8,998.0 466.2" style="fill:none;stroke:#a020f0;stroke-width:2"/>
<polyline points="941.9 421.7,943.1 425.2,943.5 427.5,944.0 428.4,944.1 428.6,944.6 429.2,945.0 429.9,945.5 430.7,945.9 431.5,946.5 432.2,947.1 433.0,947.6 433.8,948.1 434.6,948.6 435.3,949.0 436.1,949.5 436.9,950.0 437.8,950.4 438.7,951.1 440.1,951.8 441.3,952.4 442.5,953.0 443.7,954.2 445.5,954.7 446.2,955.4 447.0,956.0 447.9,956.8 448.5,957.4 449.3,958.2 450.5,958.6 451.2,959.2 451.8,959.8 452.6,960.3 453.4,961.0 454.2,961.6 455.1,962.3 456.0,962.9 456.8,963.4 457.7,964.2 458.5,964.7 459.3,965.5 459.9,966.6 460.9,967.6 461.6,968.6 462.4,969.8 463.1,972.0 464.3,972.9 464.7,974.1 465.0,975.2 465.4,976.2 465.7,979.2 466.2,980.6 466.3,982.2 466.4,983.4 466.5,984.8 466.5,987.3 466.6,988.2 466.4,989.3 466.1,990.3 466.0,991.3 465.7,992.3 465.4,993.6 464.6,994.7 464.0,996.0 463.3,997.1 462.7,998.3 462.0,999.6 461.2,1000.9 460.2,1002.2 459.2,1003.7 458.1,1008.0 454.9,1009.8 453.2,1012.0 451.5,1014.1 449.5,1015.8 447.7,1017.7 446.0,1019.1 444.2,1020.6 442.7,1021.8 440.9,1024.8 436.7,1025.7 435.6,1027.0 433.8,1028.0 432.2,1030.1 429.0,1032.7 424.9,1033.2 423.8,1034.2 422.1,1035.0 420.6,1035.8 419.2,1036.9 417.0,1038.0 414.3,1038.7 412.8,1039.5 410.8,1041.4 406.8,1043.3 403.0,1044.3 401.3,1045.5 399.4,1046.6 397.6,1047.7 395.7,1049.3 393.3,1050.5 391.0,1051.8 388.9,1053.1 386.7,1055.6 382.5,1056.7 380.9,1057.9 379.0,1058.8 377.5,1059.7 376.2,1060.3 375.0,1060.9 373.9,1061.4 372.9,1061.7 371.7,1062.3 370.3,1062.8 368.9,1063.3 367.2,1064.4 363.7,1065.1 362.2,1066.7 358.6,1067.3 357.3,1068.0 355.9,1068.4 354.6,1068.8 353.5,1069.1 352.5,1069.4 351.3,1069.6 350.0,1070.2 348.5,1070.6 347.0,1071.3 345.3,1072.0 343.8,1072.8 342.3,1073.4 341.0,1074.4 338.6,1074.5 337.7,1074.9 336.8,1075.1 335.8,1075.2 334.9,1075.5 333.8,1075.7 332.8,1076.0 331.6,1076.3 330.6,1076.5 329.6,1076.6 328.8,1076.9 328.1,1077.0 327.7" style="fill:none;stroke:#a020f0;stroke-width:2"/>
<polyline points="346.3 473.0,347.2 471.2,349.0 470.3,352.2 469.3,352.2 469.3,353.5 469.0,354.8 468.6,356.2 468.2,357.5 467.8,360.0 466.9,360.9 466.6,362.9 465.6,363.8 465.2,364.7 464.9,365.4 464.5,366.0 464.1,366.6 463.9,367.1 463.6,367.8 463.2,368.4 462.8,369.0 462.4,369.5 461.7,370.0 461.2,370.6 460.3,371.4 459.5,372.2 458.6,372.8 457.7,373.6 456.8,374.2 455.9,375.8 453.8,376.3 453.0,377.2 452.0,378.0 450.9,379.3 448.9,380.1 447.1,381.0 445.3,382.0 443.6,382.7 441.9,383.5 440.1,384.4 438.6,385.0 437.0,385.8 435.6,386.7 434.1,387.3 432.7,388.3 430.8,389.2 429.1,390.0 427.6,390.8 426.1,391.5 424.6,392.2 423.2,393.1 421.6,393.7 419.9,394.5 418.2,396.6 414.1,397.3 412.5,398.1 410.7,398.7 409.1,399.3 407.7,399.9 406.5,400.4 405.4,401.4 403.3,401.8 402.5,403.3 399.2,403.6 398.2,404.1 396.9,404.6 395.8,405.1 395.0,405.5 394.2,405.8 393.8,406.2 393.3,406.4 393.0,406.5 392.6,406.6 392.2,406.9 391.8,407.2 391.4,407.5 391.1,407.9 391.0,408.2 390.6,408.5 390.3,408.7 389.9,409.0 389.7,409.2 389.4,409.5 389.0,409.6 388.6,409.8 388.2,410.0 387.7,410.4 387.3,410.7 386.5,411.3 385.7,411.8 385.0,412.5 384.2,413.0 383.2,413.8 382.1,414.7 380.7,415.6 379.2,416.8 377.5,417.9 376.0,419.0 374.6,420.2 373.1,421.6 371.2,423.0 369.5,424.2 368.0,425.5 366.5,426.6 365.0,427.5 363.8,428.2 362.8,428.8 362.0,429.2 361.4,429.7 361.0,429.9 360.5,430.3 360.0,430.5 359.6,430.8 359.1,431.2 358.5,431.4 357.7,431.7 356.9,432.1 356.1,432.5 355.4,432.9 354.7,433.4 354.0,434.0 353.1,434.5 352.4,435.0 351.7,435.5 351.1,436.0 350.4,436.5 349.5,436.9 348.5,437.4 347.4,437.8 346.3,438.5 345.2,439.0 344.0,439.6 342.9,440.4 341.5,441.1 340.6,441.7 339.6,442.4 338.6,443.2 337.7,443.8 336.7,444.6 335.8,445.4 334.7,446.5 333.5,447.2 332.5,449.3 329.3,449.5 328.8,450.0 328.1,450.3 327.5,450.7 327.0,451.0 326.5,451.3 325.8,451.5 325.2,451.6 324.9,451.9 324.6,452.2 324.5,452.4 323.8,452.5 323.1,452.6 322.5,452.9 321.8,453.0 321.0,453.1 320.2,453.3 319.3,453.4 318.4,453.5 317.5,453.8 316.5,454.1 315.3,454.6 313.1,455.8 309.5,457.0 306.3,457.7 305.0,458.4 303.3,459.2 302.0,459.8 300.8,461.7 297.3,462.2 296.2,462.9 294.6,463.5 293.1,464.3 291.5,465.1 290.0,465.9 288.3,466.9 286.6,467.7 285.1,468.6 283.8,469.4 282.6,470.3 281.3,471.0 280.4,471.7 279.6,472.2 278.8,472.8 277.9,473.3 277.0,473.8 275.9,474.4 274.8,475.2 273.5,475.8 272.3,476.5 270.9,478.4 267.7,479.0 266.7,479.9 265.4,480.6 264.3,481.4 263.3,482.1 262.3,482.7 261.3,483.4 260.3,484.0 259.4,484.7 258.5,485.3 257.5,486.1 256.6,486.7 255.7,487.5 254.8,488.1 254.1,488.8 253.2,489.4 252.4,490.0 251.7,490.7 250.9,491.3 250.1,491.8 249.2,492.4 248.3,493.0 247.5,493.6 246.6,494.1 245.7,494.7 244.9,495.1 244.1,495.6 243.7,495.9 243.1,496.3 242.5,496.7 241.9,497.1 241.4,497.5 240.7,498.2 239.9,498.7 238.9,499.2 238.0,500.1 236.5,500.7 235.5,501.3 234.7,501.7 234.0,501.9 233.6,502.3 233.3,502.5 232.9,502.8 232.5,503.1 232.1,503.7 231.4,504.9 230.4,505.4 230.0,506.1 229.5,506.7 229.0,507.3 228.5,507.8 228.2,508.3 227.9,509.0 227.5,509.6 227.2,510.1 226.9,510.6 226.5,511.3 226.1,512.0 225.7,512.8 225.3,513.9 224.6,514.8 224.1,515.7 223.8,516.7 223.4,517.4 223.1,518.1 223.0,518.8 222.9,519.4 222.6,520.0 222.5,520.7 222.4,521.3 222.3,521.9 222.3,522.8 222.1,523.4 222.0,524.1 221.9,524.4 221.9,525.0 221.8,525.6 221.8,526.1 221.8,526.8 221.8,529.6 221.8,533.2 222.0,533.6 222.0,534.5 222.3,535.4 222.4,536.1 222.5,537.1 222.7,537.9 222.9,538.5 222.9,539.3 223.2,540.1 223.3,541.0 223.6,541.8 223.9,542.7 224.3,543.6 224.7,544.5 225.1,545.4 225.5,546.7 226.0,547.6 226.2,548.5 226.6,549.5 227.0,550.4 227.2,551.1 227.6,551.7 227.9,552.5 228.3,553.1 228.9,553.9 229.7,554.7 230.4,555.7 231.4,557.6 233.1,558.0 233.4,558.7 233.8,559.2 234.2,559.7 234.7,560.2 235.1,560.9 235.5,561.3 236.2,561.9 237.1,562.2 237.8,562.5 238.6,562.6 239.2,562.7 240.0,562.8 240.4,562.8 240.9,563.1 241.4,563.2 241.9,563.4 242.1,563.6 242.5,563.9 242.9,564.0 243.3,564.3 244.1,564.4 244.7,564.6 245.5,564.8 246.1,564.9 246.9,565.0 247.7,565.3 248.7,565.4 249.6,565.5 250.6,565.6 251.5,565.8 252.4,565.9 253.5,566.2 254.5,566.3 255.5,566.6 256.3,566.9 257.1,567.1 257.8,567.4 258.6,567.8 259.2,568.0 260.0,568.3 260.8,568.5 261.7,568.6 262.6,568.9 263.4,569.0 264.3,569.3 265.2,569.7 266.1,570.0 267.0,570.4 267.7,570.9 268.6,572.1 270.8,572.5 271.5,573.4 272.8,574.0 273.9,574.8 274.8,575.4 275.9,576.0 276.9,576.5 277.6,577.2 278.5,577.8 279.4,578.4 280.5,578.9 281.4,579.4 282.4,580.5 284.3,581.5 286.0,582.0 286.8,583.2 288.8,583.7 289.4,584.2 290.3,585.0 291.2,585.5 292.1,586.1 292.8,586.8 293.8,587.4 294.7,587.7 295.5,588.1 296.3,588.6 297.0,589.0 297.6,589.5 298.3,589.9 299.1,590.4 299.9,590.8 300.6,591.3 301.4,591.7 302.2,592.2 303.1,593.1 304.8,594.4 307.4,596.4 311.2,596.9 312.0,597.6 313.3,598.8 315.4,599.2 316.3,600.5 318.9,600.8 319.5,601.3 320.4,601.7 321.3,602.0 322.0,602.4 322.6,602.8 323.1,603.2 323.9,603.4 324.4,603.8 325.2,604.0 326.0,604.3 326.8,604.5 327.5,604.8 328.3,605.1 328.9,605.5 329.5,605.9 330.4,606.4 331.1,606.8 331.9,607.4 332.9,607.9 333.8,608.5 334.8,608.9 335.7,609.9 337.7,610.8 339.8,611.2 340.7,611.7 341.8,612.4 343.0,613.1 344.7,613.7 346.1,614.5 347.3,615.9 349.8,616.6 350.9,617.2 352.3,618.0 353.4,618.7 354.7,619.4 355.8,620.1 357.0,621.0 358.5,621.7 359.7,622.3 361.0,622.9 361.9,623.6 362.9,624.2 364.1,624.8 365.1,625.3 366.1,625.8 367.2,626.3 368.3,626.5 369.3,627.1 370.6,627.9 372.8,628.2 373.6,628.7 374.7,628.9 375.6,629.3 376.6,629.6 377.5,630.1 378.5,630.5 379.4,630.7 380.3,631.3 381.8,631.5 383.0,631.9 384.1,632.1 385.1,632.5 386.1,632.7 387.1,633.0 388.0,633.2 388.9,633.5 389.9,633.8 390.8,634.0 391.7,634.3 392.8,634.5 393.8,634.6 394.8,634.9 395.7,635.2 396.7,635.4 397.6,635.7 398.5,636.1 399.4,636.5 400.4,636.7 401.3,637.0 402.2,637.4 402.9,637.6 403.7,638.0 404.6,638.3 405.5,638.7 406.1,638.9 407.0,639.3 407.8,639.7 408.7,640.1 409.3,640.3 410.2,640.7 411.0,641.0 411.7,641.4 412.5,641.7 413.3,642.0 413.9,642.4 414.5,642.6 415.3,643.0 415.9,643.3 416.6,644.9 419.9,645.2 420.7,645.8 421.8,646.3 423.2,646.7 424.4,647.2 425.5,647.9 426.9,648.4 428.3,648.9 429.4,649.4 430.5,649.9 431.5,650.4 432.7,650.9 433.8,651.3 434.8,651.8 435.7,652.7 437.8,653.8 439.7,654.1 440.6,654.6 441.8,655.0 442.8,655.5 444.1,655.9 445.3,656.4 446.6,657.0 447.7,657.5 449.0,658.1 450.1,658.9 451.5,659.8 452.6,660.5 453.7,661.3 454.7,661.9 455.7,662.7 456.9,663.5 457.9,664.1 458.9,664.9 459.9,665.6 460.6,666.3 461.5,667.1 462.2,668.2 463.2,669.1 463.9,669.9 464.5,670.7 465.1,671.4 465.8,672.0 466.4,672.7 467.0,673.5 467.5,674.2 468.0,674.8 468.5,675.5 468.8,676.1 469.1,676.8 469.4,677.6 469.7,678.5 469.9,679.1 470.0,679.9 470.3,680.8 470.4,681.4 470.5,682.0 470.6,682.8 470.6,683.4 470.7,684.1 470.7,684.9 470.7,687.1 470.5,687.8 470.4,688.7 470.2,689.7 470.1,690.6 469.8,691.3 469.6,692.1 469.4,693.0 469.0,693.7 468.8,694.5 468.5,695.1 468.3,695.7 468.0,696.3 467.9,696.8 467.8,697.3 467.5,697.7 467.4,698.0 467.1,698.4 466.9,698.8 466.8,699.2 466.8,699.7 466.5,700.1 466.4,700.5 466.3,701.0 466.3,701.4 466.0,701.9 465.7,702.3 465.4,702.8 464.8,703.4 464.3,704.0 463.8,704.5 463.2,705.2 462.6,705.7 461.9,706.5 461.1,707.1 460.3,708.0 459.3,708.9 458.3,710.3 456.4,711.1 455.5,712.2 454.2,713.2 453.1,714.2 451.9,715.1 450.6,716.0 449.5,716.8 448.5,718.5 446.2,719.2 445.2,720.2 443.9,721.3 442.0,722.3 440.2,723.4 438.4,725.5 435.1,726.5 433.8,727.6 432.1,728.4 430.8,729.3 429.6,730.0 428.7,730.7 427.8,731.2 427.1,731.8 426.2,732.3 425.4,732.8 424.5,733.3 423.6,733.9 422.5,734.5 421.1,735.7 418.5,736.0 417.3,736.5 415.9,736.9 414.7,737.2 413.4,737.4 412.3,737.7 410.8,738.0 409.4,738.4 408.1,738.8 406.5,739.5 404.7,740.4 402.7,741.4 400.6,742.6 398.7,743.8 396.8,744.9 394.9,745.9 393.2,747.9 390.1,748.6 388.7,749.5 387.1,750.3 385.6,751.0 384.1,751.6 382.7,752.2 381.3,752.5 380.1,752.8 379.2,752.9 378.2,753.0 377.5,753.1 376.8,753.1 376.2,753.2 375.7,753.2 375.2,753.2 374.7,753.2 373.7,753.0 373.3,752.9 372.6,752.9 371.3,752.8 368.9,752.8 367.7,753.0 366.1,753.4 364.4,754.0 362.7,754.8 361.1,755.3 359.4,755.9 358.1,756.4 356.7,757.1 355.3,757.5 353.9,757.9 352.5,759.2 348.7,759.5 347.4,760.1 345.7,760.7 344.0,761.3 342.5,762.0 341.0,762.6 339.5,763.2 338.1,763.7 336.9,764.2 335.8,764.5 334.7,764.7 333.7,765.0 332.5,765.2 331.1,765.5 329.6,766.0 327.7,766.5 326.0,767.1 324.2,767.7 322.4,768.4 320.6,769.2 318.4,769.8 316.8,770.4 315.4,770.9 313.9,771.2 312.5,771.8 311.2,772.3 309.6,772.8 307.9,773.5 306.2,774.2 304.5,775.0 302.7,776.1 300.0,777.0 297.8,777.8 295.8,778.4 294.3,778.8 293.0,779.1 291.8,779.3 290.9,779.4 290.1,779.7 289.2,779.8 288.4,780.1 287.5,780.2 286.6,780.5 285.5,780.9 284.5,781.1 283.6,781.6 282.4,782.0 281.4,782.5 280.2,783.1 279.2,783.6 278.2,785.1 275.5,785.2 274.8,785.9 273.5,786.4 272.4,786.9 271.2,787.4 269.9,787.9 268.8,788.3 267.6,788.8 266.3,789.3 265.2,789.7 264.4,790.0 263.6,790.2 263.0,790.5 262.2,790.7 261.8,790.8 261.3,790.9 260.8,791.1 260.4,791.2 259.9,791.5 259.6,791.6 259.3,791.9 258.9,792.3 258.4,792.6 258.2,793.0 257.8,793.6 257.3,794.5 256.8,795.6 256.1,796.7 255.6,798.0 254.8,799.2 253.9,800.5 253.2,801.9 252.3,803.0 251.5,804.1 250.8,804.9 250.2,805.6 249.8,806.4 249.4,807.4 248.8,807.8 248.4,808.5 247.8,809.3 247.3,810.1 246.6,810.9 246.0,811.6 245.5,812.4 245.0,813.0 244.7,813.6 244.3,814.2 244.1,814.7 243.7,815.4 243.3,815.9 242.9,816.6 242.7,817.2 242.4,817.8 242.0,818.3 241.6,819.0 241.2,819.6 240.7,820.3 240.5,820.9 240.1,821.6 239.7,822.2 239.5,822.8 239.2,823.3 239.0,823.8 238.7,824.5 238.3,825.8 237.3,826.3 236.9,827.1 236.3,827.5 236.0,828.0 235.6,828.4 235.4,828.9 235.3,829.1 235.0,829.5 234.8,829.9 234.5,830.3 234.4,830.8 234.1,831.2 233.7,831.6 233.5,832.3 233.2,832.6 232.8,833.1 232.6,833.5 232.5,833.9 232.4,834.4 232.2,834.8 232.0,835.3 231.9,835.5 231.7,835.9 231.6,836.3 231.5,836.7 231.4,837.1 231.4,837.6 231.4,838.0 231.3,838.5 231.3,839.4 231.3,840.4 231.3,841.5 231.5,842.6 231.8,843.3 232.1,844.0 232.3,844.4 232.6,844.8 232.8,845.3 233.1,845.7 233.4,846.2 233.8,846.6 234.2,847.1 234.7,847.6 235.1,848.5 236.0,849.7 237.4,850.1 237.9,850.6 238.5,851.1 239.2,851.6 239.8,852.1 240.5,852.4 241.1,852.7 241.9,853.3 242.9,853.8 243.8,854.3 244.5,854.6 245.1,855.2 245.9,855.5 246.5,855.9 247.3,856.3 248.1,856.7 248.8,857.2 249.5,857.4 250.4,857.8 251.2,858.4 252.5,858.7 253.5,859.1 254.5,859.5 255.5,859.9 256.5,860.3 257.2,860.6 258.1,861.0 258.9,861.2 259.8,861.5 260.7,861.7 261.6,862.0 263.1,862.3 264.4,862.7 265.8,863.1 266.9,863.6 268.2,864.0 269.3,864.4 270.4,864.9 271.6,865.3 272.6,865.8 273.4,866.2 274.5,866.9 275.9,867.4 277.2,867.9 278.4,868.4 279.6,868.9 280.9,869.4 282.2,870.3 284.7,871.2 287.0,871.8 288.1,872.4 289.3,872.9 290.3,873.9 292.5,875.2 295.5,875.8 296.4,876.4 297.5,876.9 298.8,877.5 299.9,878.8 302.5,879.2 303.1,879.8 304.2,880.3 305.0,880.7 305.8,881.2 306.5,881.7 307.3,882.1 308.1,882.6 309.0,883.1 309.9,884.4 312.4,884.9 313.1,885.5 314.0,886.1 314.9,886.8 315.8,887.5 316.7,888.2 317.6,888.7 318.5,889.5 319.4,890.1 320.3,890.8 321.2,891.4 322.3,892.2 323.3,892.8 324.4,893.5 325.9,894.3 327.0,895.0 328.1,895.5 329.1,896.3 329.9,896.9 330.8,897.4 331.7,898.1 332.6,898.7 333.5,899.3 334.4,899.8 335.3,900.3 336.2,900.8 337.1,901.7 338.7,902.6 340.1,902.8 340.6,903.2 341.5,903.6 342.1,904.1 342.7,904.5 343.4,904.7 344.0,905.1 344.7,905.5 345.7,905.9 346.6,906.1 347.6,906.5 348.3,906.7 349.1,907.0 350.0,907.4 350.6,907.8 351.4,909.0 353.7,910.1 356.1,910.4 356.8,910.8 357.9,911.3 358.8,911.7 359.8,912.7 361.8,913.5 363.7,913.9 364.8,914.8 366.5,915.4 367.7,916.8 370.2,917.5 371.1,918.1 372.4,918.7 373.5,919.5 374.8,920.1 375.9,920.6 377.1,921.4 378.2,921.9 379.4,922.5 380.5,923.2 381.7,923.8 382.7,924.5 383.8,925.1 384.7,925.8 385.7,926.5 386.7,927.0 387.6,927.5 388.5,928.0 389.4,928.5 390.5,929.0 391.5,929.7 393.5,930.2 394.6,930.8 395.8,931.2 396.7,931.7 397.6,933.8 401.6,934.7 403.9,935.5 406.2,935.9 407.1,936.3 408.2,936.8 409.2,937.1 410.0,937.4 410.9,937.8 411.8,938.2 412.7,938.7 413.6,939.9 416.2,940.3 417.1,940.8 418.2,941.1 419.2,941.5 420.4,941.9 421.7" style="fill:none;stroke:#a020f0;stroke-width:2"/>
<polyline points="951.7 498.9,952.2 496.2,953.1 495.3,954.4 494.4,954.6 494.3,956.0 493.6,957.0 493.3,958.1 493.0,959.0 492.9,959.8 492.8,960.7 492.7,961.4 492.8,962.0 493.3,963.0 494.3,963.3 494.9,963.7 495.7,964.0 496.8,964.1 497.9,964.2 499.3,964.3 500.6,964.4 502.0,964.4 503.3,964.2 506.3,964.2 506.7,964.1 507.5,964.1 508.2,964.4 508.9,964.8 509.2,965.5 509.4,966.5 509.5,967.6 509.7,968.8 509.7,970.4 509.8,973.7 509.8,974.2 509.8,975.2 510.0,975.9 510.3,976.3 510.5,976.8 510.6" style="fill:none;stroke:#ff0000;stroke-width:2"/>
<polyline points="981.7 495.7,982.7 499.8,983.1 501.2,984.0 503.0,984.3 503.9,984.7 505.3,984.9 506.6,985.1 507.9,985.2 509.1,985.2 510.2" style="fill:none;stroke:#ff0000;stroke-width:2"/>
<polyline points="991.3 492.1,991.3 496.2,991.8 498.5,992.7 500.8,992.7 501.3,993.3 502.9,993.7 504.4,994.1 505.9,994.9 508.5,995.2 509.4,995.4 510.2" style="fill:none;stroke:#ff0000;stroke-width:2"/>
<polyline points="976.3 492.6,979.9 493.0,984.4 494.1,986.2 494.3,987.8 494.7,989.6 494.9,991.2 495.0,992.5 495.1,993.9 495.2,995.2 494.8,996.6 494.1,998.0 493.0,999.3 491.5,1001.3 488.7,1002.9 486.2,1004.4 483.9,1005.7 481.8" style="fill:none;stroke:#ff0000;stroke-width:2"/>
<polyline points="679.0 498.0,680.4 500.3,681.3 501.7,681.8 502.6,681.9 503.0,682.2 504.1,682.3 505.4,682.6 506.7,682.8 508.2,682.9 509.8,683.0 511.3,683.1 513.0" style="fill:none;stroke:#ff0000;stroke-width:2"/>
<polyline points="690.9 498.9,690.9 503.0,691.3 505.3,691.3 507.6,691.5 508.1,691.8 509.5,691.9 511.0,692.2 512.6,692.6 514.0,692.7 515.5,693.1 516.7,693.2 517.6" style="fill:none;stroke:#ff0000;stroke-width:2"/>
<polyline points="672.7 501.7,673.6 500.8,674.5 500.3,676.7 500.3,677.0 500.1,677.8 500.0,679.5 499.8,681.1 499.7,683.0 499.6,684.9 499.5,686.9 499.5,690.9 499.6,692.5 499.9,694.6 500.0,696.5 500.1,698.4 500.0,700.1 499.7,701.7 499.2,703.2 498.4,704.6 497.2,706.2 495.5,707.5 493.4" style="fill:none;stroke:#ff0000;stroke-width:2"/>
<polyline points="523.8 496.2,524.2 495.3,525.2 496.7,525.6 498.0,525.7 498.4,526.0 499.5,526.4 501.4,526.8 502.9,527.0 504.4,527.3 505.5,527.5 506.4" style="fill:none;stroke:#ff0000;stroke-width:2"/>
<polyline points="534.7 498.0,536.1 503.0,536.5 504.8,537.5 506.2,537.5 506.7,538.0 507.6,538.5 508.4,539.1 509.3" style="fill:none;stroke:#ff0000;stroke-width:2"/>
<polyline points="517.0 495.7,524.2 495.3,525.6 494.8,527.3 494.3,530.7 493.6,532.0 493.3,533.7 493.0,535.2 492.9,536.6 492.8,538.1 492.7,539.3 492.7" style="fill:none;stroke:#ff0000;stroke-width:2"/>
<polyline points="528.3 531.7,534.3 528.5,535.6 527.6,537.5 526.7,537.9 526.3,539.2 525.6,540.3 524.8,541.8 524.0,543.2 523.2,544.6 522.5,545.9 522.1,546.9 521.6" style="fill:none;stroke:#ff0000;stroke-width:2"/>
<polyline points="537.0 540.3,537.9 538.1,538.8 537.2,540.2 536.3,540.5 536.2,541.3 536.1,541.8 536.0,542.6 535.9,543.2 536.3,543.9 537.0,544.5 538.1,544.9 539.6,545.1 541.4,545.3 543.2,545.2 545.1,545.0 546.8,544.6 548.6,544.3 549.6,544.2 550.3,544.7 550.7,545.6 550.3,546.8 549.6,548.2 548.7,549.8 547.8,552.2 546.6,555.5 544.9,556.3 544.4" style="fill:none;stroke:#ff0000;stroke-width:2"/>
<polyline points="413.6 498.5,414.5 499.4,415.5 500.8,415.9 501.7,416.4 502.8,416.9 504.3,417.5 505.8,418.1 507.4,418.6 509.1,419.1 510.7,420.1 513.4,420.3 514.0,420.7 514.6" style="fill:none;stroke:#ff0000;stroke-width:2"/>
<polyline points="425.0 498.5,427.3 500.8,428.2 502.1,428.7 504.4,429.0 504.8,429.5 506.4,429.8 507.6,430.0 508.7,430.2 509.6,430.3 510.3" style="fill:none;stroke:#ff0000;stroke-width:2"/>
<polyline points="406.3 503.0,410.9 501.2,415.5 498.9,416.2 498.8,417.8 498.3,420.6 497.7,422.8 497.4,424.9 497.1,426.7 497.0,428.2 496.9,430.3 496.9,430.8 497.2" style="fill:none;stroke:#ff0000;stroke-width:2"/>
<polyline points="420.5 532.6,425.9 529.0,427.7 528.1,430.0 526.7,430.6 526.5,433.1 525.5,437.1 523.9,438.4 523.6,440.2 523.3,441.6 522.9,442.8 522.6,443.7 522.5,444.3 522.4" style="fill:none;stroke:#ff0000;stroke-width:2"/>
<polyline points="437.8 536.3,437.8 538.5,437.3 539.4,437.3 541.3,437.5 543.1,437.8 543.9,437.9 544.4,438.4 544.9,438.8 545.2,439.4 545.4,440.2 545.3,440.9 545.0,441.8 544.4,442.8 543.8,444.2 542.6,445.3 541.9,446.3 541.2,447.1 540.7,447.8 540.5,448.5 540.7,449.0 541.3,449.7 542.1,450.3 543.5,450.9 545.0,451.4 546.6,451.9 548.7,452.4 550.4,452.8 551.8,453.3 553.3,453.8 554.3" style="fill:none;stroke:#ff0000;stroke-width:2"/>
<polyline points="814.7 500.8,815.1 499.8,816.4 497.8,816.7 497.4,817.3 496.8,818.0 496.2,818.6 495.5,819.4 495.0,820.3 494.4,822.7 493.2,823.4 493.1,824.2 492.9,824.8 492.8,825.4 492.7,825.8 492.9,826.0 493.3,826.0 494.6,825.6 495.8,825.3 497.1,824.7 498.2,824.2 499.1,823.9 499.8,823.7 500.3,823.6 500.6,824.1 500.6,824.8 500.7,825.9 500.7,826.4 500.9,826.9 501.4,827.4 502.2,827.7 503.2,827.9 504.3,828.1 505.7,827.8 507.2,827.3 508.6,826.7 510.1,825.6 511.6,824.6 512.7,823.8 513.6,823.2 514.2,822.4 514.6,821.8 514.8,821.2 514.6" style="fill:none;stroke:#ff0000;stroke-width:2"/>
<polyline points="837.9 495.7,839.7 499.4,841.1 504.4,841.2 504.6,841.3 505.8,841.4 506.7,841.4 507.5,841.7 508.2,841.8 508.6" style="fill:none;stroke:#ff0000;stroke-width:2"/>
<polyline points="847.0 496.2,847.0 500.3,847.2 504.4,847.5 505.4,848.0 507.8,848.3 508.9,848.4 510.0,848.6 510.9" style="fill:none;stroke:#ff0000;stroke-width:2"/>
<polyline points="834.3 496.7,839.3 495.7,841.5 495.3,844.2 494.7,847.5 494.3,849.1 494.1,850.4 494.1,851.4 494.2,852.1 494.6" style="fill:none;stroke:#ff0000;stroke-width:2"/>
<polyline points="825.6 532.2,830.6 528.1,832.9 526.2,835.6 524.4,836.5 523.8,838.6 522.4,841.1 521.0,843.5 519.6,846.1 518.2,848.5 517.0,850.7 516.3,852.6 515.6,854.3 515.2,855.4 515.0,856.3 514.8,856.8 514.7,857.2 514.6" style="fill:none;stroke:#ff0000;stroke-width:2"/>
<polyline points="838.8 539.0,839.3 537.2,840.2 536.3,841.1 534.9,841.3 534.5,842.3 533.6,843.2 532.8,844.1 532.1,845.0 531.3,845.9 530.8,846.8 530.3,847.5 530.0,848.3 529.8,849.0 529.9,849.6 530.5,849.9 531.3,850.2 533.0,850.3 534.9,850.0 536.7,849.6 538.5,848.9 540.3,848.2 541.9,846.7 545.4,846.5 546.0,846.2 546.7,846.0 547.2,846.6 547.7,847.5 547.9,848.5 548.1,849.8 548.3,851.3 548.4,853.1 548.0,855.0 547.7,857.1 547.0,859.0 546.2,861.1 545.2,863.0 543.9" style="fill:none;stroke:#ff0000;stroke-width:2"/>
<polyline points="345.3 461.6,344.4 462.1,342.6 463.4,342.4 463.9,342.0 464.4,341.7 464.8,341.4 465.3,341.2 465.8,340.9 466.4,340.7 467.0,340.6 467.7,340.3 468.3,340.2 468.8,340.1 469.3,340.0 469.8,340.0 470.3,340.1 471.0,340.4 471.5,340.7 472.2,341.1 472.8,341.3 473.4,341.8 473.9,342.3 474.4,342.7 474.9,343.6 476.0,344.7 477.0,345.2 477.3,345.7 477.7,346.2 477.9,346.5 478.1,346.9 478.2,347.4 478.3,347.8 478.4,348.2 478.4,348.7 478.4,349.1 478.4,349.6 478.4,350.5 478.4,351.3 478.3,351.9 478.2,352.5 477.9,353.0 477.6,353.5 477.2,354.0 476.9,354.7 476.4,355.2 476.0,355.8 475.6,356.1 475.1,356.5 474.9,356.9 474.5,357.1 474.1,357.5 473.7,357.7 473.1,357.8 472.6,357.9 471.7,358.0 470.8,358.0 470.0,358.0 468.9,357.7 467.9,357.3 467.0,356.9 465.8,356.3 464.8,355.6 463.8,354.9 463.1,353.9 462.2,352.2 461.3,350.5 460.6,348.6 460.2,346.6 459.9,344.5 459.7,342.5 459.6,340.6 459.9,338.9 460.6,337.7 461.5,336.7 462.7" style="fill:none;stroke:#ffff00;stroke-width:2"/>
<polyline points="524.7 213.6,523.3 214.0,522.9 214.9,522.0 216.3,521.9 216.5,521.6 217.1,521.4 217.6,521.3 218.3,521.0 218.9,520.9 219.6,520.8 220.2,520.7 220.6,520.7 221.0,520.7 221.4,520.6 221.9,520.8 222.3,521.1 222.8,521.2 223.2,521.5 223.7,521.9 224.3,522.4 224.9,522.9 225.4,523.6 225.9,524.1 226.4,524.7 226.6,525.2 227.0,525.7 227.2,526.3 227.4,526.9 227.7,527.4 227.8,527.9 227.9,528.6 228.0,529.1 228.0,529.7 228.1,530.2 228.1,530.7 228.1,531.1 228.1,531.8 227.9,532.3 227.5,532.9 227.1,533.2 226.6,533.6 226.2,533.8 225.7,534.1 225.3,534.3 224.8,534.5 224.4,534.5 223.9,534.6 223.3,534.6 222.6,534.7 221.8,534.7 220.4,534.7 219.8,534.5 217.2,534.2 216.7,533.9 215.9,533.5 215.0,532.4 214.2,531.4 213.3,530.1 212.8,528.8 212.2,527.5 211.9,526.2 211.7,525.0 211.8,523.9 212.1,522.9 212.7,521.9 213.7,521.0 215.2,520.2 217.2" style="fill:none;stroke:#ffff00;stroke-width:2"/>
<polyline points="832.0 232.2,831.5 230.9,830.2 233.1,829.7 234.0,829.8 234.6,829.7 235.4,829.7 236.2,829.9 238.2,830.4 238.6,831.0 239.3,832.4 239.8,833.7 240.2,835.1 240.4,836.4 240.6,837.8 240.7,839.1 240.7,840.3 240.6,841.4 240.3,842.4 240.0,843.4 239.5,844.2 239.0,845.2 238.0,846.0 237.1,846.7 236.1,847.1 235.0,847.4 233.8,847.5 232.6,847.7 231.3,847.7 230.0,847.8 228.9,847.5 227.8,846.7 226.8,846.0 226.0,845.0 225.5,843.7 225.2,842.2 224.9,840.7 224.8,839.0 224.9,837.3 225.1,835.5 225.8,833.8 226.7,832.2 227.7,830.8 228.9,829.6 230.3,828.7 231.8" style="fill:none;stroke:#ffff00;stroke-width:2"/>
<polyline points="403.2 387.9,401.8 387.9,400.9 389.2,400.4 390.6,400.3 391.3,400.2 392.6,400.1 393.7,400.1 394.7,400.4 395.5,400.9 396.4,401.6 397.0,402.3 397.7,403.3 398.2,404.4 398.8,405.4 399.1,406.6 399.3,408.0 399.2,409.4 399.1,410.6 398.4,411.6 397.7,412.7 396.8,413.5 395.5,414.2 394.2,414.8 392.9,415.1 391.6,415.4 390.4,415.6 389.4,415.3 388.3,414.8 387.4,414.2 386.6,412.3 385.9,410.7 385.5,409.0 385.2,407.4 385.1,405.9 385.3,404.6 385.8,403.6 386.4,402.8 387.1,402.3 388.1,402.0 389.2,402.2 390.4,402.8 391.4" style="fill:none;stroke:#ffff00;stroke-width:2"/>
<polyline points="458.2 289.1,455.5 293.7,455.1 295.0,454.7 296.7,454.6 297.7,454.6 298.7,454.8 302.0,455.3 302.9,456.8 305.3,457.7 306.0,459.5 306.8,461.2 307.3,462.9 307.2,464.5 306.7,466.2 305.9,467.7 304.7,469.0 303.5,470.2 302.1,470.9 300.5,471.6 299.0,472.0 297.4,472.3 295.9,472.1 294.6,471.4 293.3,470.6 292.3,469.6 291.3,468.4 290.8,467.0 290.2,465.7 289.8,464.5 289.6,463.4 289.6,462.6 289.8,462.0 290.4,461.5 292.1,461.2 293.6" style="fill:none;stroke:#ffff00;stroke-width:2"/>
<polyline points="586.2 296.9,585.7 297.8,585.2 299.1,584.8 300.0,584.9 300.5,584.8 301.0,584.8 301.6,585.0 303.2,585.5 303.9,586.1 304.8,587.0 305.7,588.0 306.4,589.2 307.1,590.6 307.4,592.1 307.7,594.5 307.7,596.7 307.1,598.4 306.5,600.9 305.5,601.6 305.1,602.2 304.6,602.6 304.1,602.9 303.4,603.1 302.9,603.2 302.2,603.1 301.4,602.7 300.6,602.3 299.7,601.1 298.5,600.0 297.4,599.0 296.4,597.6 295.4,596.3 294.7,594.7 294.2,593.1 293.9,591.4 293.8,589.7 294.3,587.9 295.3,586.1 297.0,584.5 298.9,583.0 301.2" style="fill:none;stroke:#ffff00;stroke-width:2"/>
<polyline points="627.6 383.3,626.7 383.8,626.2 384.7,625.0 387.0,624.8 387.6,624.7 388.2,624.6 388.9,624.5 389.7,624.5 390.5,624.6 391.4,625.1 392.3,625.7 393.1,626.4 394.2,627.3 395.0,629.6 396.8,630.7 397.3,632.1 398.0,633.4 398.4,634.7 398.7,635.9 398.7,637.0 398.5,638.2 397.5,639.1 396.5,639.7 395.3,640.0 394.1,640.3 393.0,640.4 392.0,640.6 391.0,640.3 390.1,639.8 389.1,639.1 388.2,638.4 387.3,637.4 386.5,636.3 385.9,635.1 385.5,634.1 385.2,632.7 385.0,631.5 385.3,630.6 386.0" style="fill:none;stroke:#ffff00;stroke-width:2"/>
<polyline points="745.0 388.8,742.8 388.8,741.4 389.2,740.0 390.2,739.7 390.6,739.1 391.1,738.8 391.8,738.4 392.5,738.2 393.3,738.1 394.3,738.0 395.3,737.9 396.2,737.8 397.0,738.0 397.6,738.4 398.4,739.0 399.0,739.7 399.6,740.7 400.1,741.8 400.4,743.0 400.6,744.4 400.8,745.8 400.9,747.3 400.8,748.8 400.3,750.0 399.8,751.4 399.1,752.3 398.3,753.3 397.5,754.1 396.5,754.5 395.7,754.9 394.8,755.1 394.0,755.2 393.1,755.1 392.2,754.7 391.3,754.2 390.6,753.3 390.0,752.2 389.4,750.9 389.0,749.4 388.8,748.0 388.8,746.6 389.2" style="fill:none;stroke:#ffff00;stroke-width:2"/>
<polyline points="769.2 297.8,767.8 297.8,765.1 298.2,764.9 298.7,764.4 299.2,764.0 299.9,763.6 300.6,763.3 301.2,763.1 301.9,763.0 302.9,762.9 303.8,763.1 304.8,763.5 305.7,764.1 306.6,764.8 307.5,765.7 308.4,766.6 309.1,768.1 309.6,769.3 309.9,770.6 310.1,771.7 309.9,772.5 309.4,773.5 308.8,774.2 308.1,774.8 307.3,775.2 306.7,775.7 306.1,775.9 305.4,776.1 304.4,776.2 303.5,776.3 302.8,776.3 301.9,776.2 301.1,775.9 300.4,775.4 299.6,774.8 299.2,773.9 298.7,771.9 297.9,770.3 298.0,768.9 298.1,767.5 298.7,766.2 299.5,765.0 300.8" style="fill:none;stroke:#ffff00;stroke-width:2"/>
<polyline points="682.7 460.7,681.8 461.6,679.9 463.9,679.7 464.0,679.5 464.3,679.1 464.7,679.0 465.2,678.8 465.7,678.7 466.4,678.7 467.3,678.6 468.8,678.6 469.4,678.8 470.8,679.0 471.1,679.4 471.6,679.9 472.1,680.4 472.4,681.1 472.8,681.6 473.2,682.2 473.4,682.9 473.8,683.6 474.0,684.4 474.3,685.3 474.6,686.3 474.8,687.3 475.0,688.4 475.1,689.5 474.9,690.5 474.7,691.2 474.2,692.1 473.6,692.6 472.7,692.9 471.8,693.1 470.7,693.3 468.8,693.2 467.2,693.0 465.7,692.5 464.2,691.9 463.0,691.0 462.1,690.1 461.1,689.2 460.5,688.2 460.1,687.0 459.9,685.7 460.1" style="fill:none;stroke:#ffff00;stroke-width:2"/>
<polyline points="883.4 303.2,883.0 302.3,881.6 302.3,880.7 302.8,880.5 303.1,879.8 303.5,879.3 303.9,878.8 304.3,878.4 304.7,877.9 305.4,877.6 305.9,877.2 306.4,877.0 306.9,876.9 307.4,876.8 307.8,876.7 308.3,876.9 309.0,877.3 309.7,877.9 310.5,878.8 311.1,879.6 311.9,881.3 312.5,882.5 312.9,883.8 313.2,885.0 313.3,886.0 313.5,887.8 313.3,888.4 313.1,889.0 313.0,889.4 312.7,889.7 312.4,890.1 311.9,890.3 311.2,890.6 310.4,891.0 309.4,891.2 308.5,891.3 307.4,891.4 306.4,891.5 304.9,891.3 303.5,890.9 302.3,889.7 300.1,889.0 299.3,887.9 298.4,887.0 297.7,885.8 297.3,884.6 297.0,883.2 297.0,881.4 297.9,879.1 299.6,876.3 302.2" style="fill:none;stroke:#ffff00;stroke-width:2"/>
<polyline points="926.7 390.2,925.3 390.6,924.4 391.5,923.5 392.9,923.4 393.0,922.9 393.9,922.7 394.7,922.5 395.5,922.4 396.6,922.3 397.5,922.2 398.5,922.2 399.6,922.5 400.6,923.1 401.6,923.7 402.5,924.5 403.3,925.5 404.0,926.4 404.5,927.5 404.9,928.5 405.1,929.5 405.3,930.6 405.4,931.6 405.3,932.6 404.9,933.6 404.5,934.5 403.9,935.3 403.2,936.1 402.4,936.8 401.6,937.2 400.8,937.7 399.9,937.9 399.2,938.1 398.4,938.3 397.5,938.3 396.7,938.4 396.0,938.2 395.2,937.8 394.5,937.2 393.8,936.5 393.1,935.0 392.6,933.8 392.2,932.7 392.0,931.5 392.0,930.4 392.4,929.4 393.1" style="fill:none;stroke:#ffff00;stroke-width:2"/>
<polyline points="1052.3 307.8,1052.8 309.1,1054.6 311.9,1056.4 313.7,1056.7 313.6,1057.6 314.0,1058.7 314.4,1059.9 314.6,1061.1 314.8,1062.2 314.9,1063.4 314.9,1064.5 314.8,1065.3 314.3,1066.0 313.9,1066.6 313.3,1067.0 312.4,1067.3 311.0,1067.4 310.3,1067.2 309.2,1066.7 308.2,1065.9 307.0,1065.1 306.2,1064.1 305.3,1062.9 304.6,1061.5 303.7,1060.4 302.9,1059.5 302.2,1058.9 301.6,1058.5 301.1,1058.3 300.5,1058.1 300.0,1058.0 299.5,1058.1 299.1,1058.3 298.6,1058.8 298.3,1059.3 297.9,1059.7 297.7,1060.2 297.6,1060.6 297.5,1061.3 297.4,1061.8 297.4,1062.3 297.4,1063.0 297.5,1063.6 297.8,1064.3 298.3,1064.9 298.8,1065.4 299.2" style="fill:none;stroke:#a020f0;stroke-width:2"/>
<polyline points="1071.4 299.1,1071.9 302.8,1071.9 304.1,1072.1 306.8,1072.4 309.3,1072.7 310.5,1073.1 311.5,1073.3 312.4,1073.6 313.0,1074.0 313.6,1074.2 313.9" style="fill:none;stroke:#a020f0;stroke-width:2"/>
<polyline points="1079.2 288.7,1079.2 290.2,1078.4 289.4" style="fill:none;stroke:#a020f0;stroke-width:2"/>
<polyline points="1081.4 301.9,1081.4 305.5,1081.4 310.5,1081.9 309.6,1082.0 309.3,1082.3 308.7,1082.5 308.2,1082.8 307.5,1083.1 306.8,1083.3 306.2,1083.6 305.4,1084.0 304.8,1084.6 303.9,1085.1 303.4,1085.4 302.8,1086.0 302.5,1086.5 302.3,1086.9 302.1,1087.4 302.1,1088.1 302.0,1088.6 302.3,1089.3 302.8,1089.9 303.7,1090.7 305.5,1091.8 308.6,1092.0 309.8,1092.5 311.2,1092.8 312.4,1093.1 313.3,1093.3 313.9,1093.7 314.3,1094.0 314.5,1094.4 314.3" style="fill:none;stroke:#a020f0;stroke-width:2"/>
<polyline points="1099.2 271.8,1104.2 272.3,1105.1 273.2,1105.1 273.6,1105.3 274.3,1105.4 275.4,1105.3 276.8,1104.6 278.3,1103.8 279.7,1102.4 281.5,1101.5 282.9,1100.9 283.7,1100.7 284.9,1101.2 284.9,1101.6 285.1,1102.3 285.2,1102.8 285.3,1103.3 285.4,1103.8 285.4,1104.3 285.4,1104.7 285.4,1105.4 285.5,1106.5 285.5" style="fill:none;stroke:#a020f0;stroke-width:2"/>
<polyline points="1122.9 298.7,1118.3 300.0,1117.4 301.4,1116.0 302.8,1114.7 304.5,1113.7 305.9,1112.7 307.4,1112.0 309.0,1111.5 310.7,1111.2 312.5,1111.0 314.0,1111.6 315.7,1112.6 317.1,1113.9 318.1,1115.4 318.7,1116.7 319.2,1118.3 318.9,1120.0 318.3,1121.7 317.2,1123.4 315.7,1125.0 314.0,1126.3 312.0,1127.5 309.4,1128.2 307.4,1128.7 305.6,1128.3 303.8,1128.2 302.7,1127.5 301.8,1126.6 300.8,1125.4 300.3,1124.1 299.7,1122.9 299.4,1121.5 299.1,1120.4 299.0,1119.3 299.1,1118.5 299.1,1117.8 299.3,1117.4 299.6,1117.1 299.9,1116.9 300.3,1117.1 300.9,1117.6 301.4,1118.4 301.9,1119.6 302.4,1121.0 302.6,1122.7 302.8,1124.6 303.0,1126.8 302.5,1129.4 301.5,1133.9 299.5,1137.3 297.6" style="fill:none;stroke:#a020f0;stroke-width:2"/>
<polyline points="347.2 468.9,345.8 469.3,344.4 469.3,338.2 469.2,337.2 469.1,336.3 469.0,335.3 469.0,334.3 468.8,333.6 468.7,332.7 468.6,331.8 468.3,331.0 468.0,330.1 467.7,329.2 467.3,328.3 466.7,327.2 466.2,326.2 465.5,325.2 464.9,324.1 464.4,323.1 463.9,320.5 462.5,319.9 462.2,318.7 461.6,317.6 461.1,316.1 460.3,314.9 459.4,313.5 458.6,312.4 457.5,311.1 456.5,309.8 455.4,308.7 454.2,307.7 452.9,306.6 451.4,305.5 450.0,304.4 448.4,303.1 446.4,301.0 443.3,300.3 442.3,299.1 441.1,298.1 440.0,296.9 439.1,295.6 438.4,294.2 437.7" style="fill:none;stroke:#a020f0;stroke-width:2"/>
<polyline points="363.6 115.3,364.5 115.7,366.3 115.7,368.6 116.2,368.8 116.1,370.0 116.1,371.3 116.1,376.8 116.2,383.4 116.0,386.0 115.7,392.5 115.0,395.0 114.6,398.3 114.0,401.3 113.7,404.3 113.4,406.9 113.3,409.5 113.2,413.1 113.1,418.7 113.0,423.2 113.0,427.4 113.0,432.5 113.0,435.5 112.8,436.7 112.5,438.2 112.2,439.5 112.0,440.7 111.7,441.5 111.5,442.3 111.4,442.7 111.3,443.2 111.3,443.5 111.0,443.9 110.9,444.1 110.5" style="fill:none;stroke:#00ffff;stroke-width:2"/>
<polyline points="379.5 106.6,378.1 107.1,376.8 108.0,375.8 108.4,375.6 108.7,374.8 109.3,373.8 109.8,372.7 110.5,371.7 111.0,370.8 111.6,369.8 112.1,367.9 113.2,367.0 113.9,366.1 114.3,365.4 114.8,364.7 115.1,364.3 115.3,364.1 115.6,364.3 116.2,364.5 116.9,365.0 117.6,366.1 118.6,366.9 119.7,367.9 120.7,368.8 121.7,369.7 122.5,370.4 123.3,371.2 124.0,371.9 124.4,372.5 124.9,372.8 125.2,373.3 125.3,373.7 125.5,374.3 125.4,375.1 125.0" style="fill:none;stroke:#00ffff;stroke-width:2"/>
<polyline points="472.4 101.1,472.8 98.4,473.7 98.0,476.0 97.5,476.0 97.4,476.5 97.3,477.2 97.2,477.7 97.1,478.2 97.1,478.7 97.1,479.2 97.1,479.7 97.3,480.2 97.7,480.4 98.3,480.6 99.8,480.8 101.3,480.5 102.7,480.0 104.3,479.3 105.8,478.6 107.2,478.0 108.6,477.5 110.0,476.9 111.2,476.4 112.5,476.1 113.6,475.9 114.7,475.8 115.5,475.7 116.2,475.7 116.8,476.2 117.6,476.4 118.0,476.8 118.5,477.5 118.8,478.3 119.2,479.3 119.4,480.2 119.7,481.2 119.9,481.9 120.0,482.5 120.1,483.1 120.2,484.0 120.2,484.9 120.2,486.0 120.0" style="fill:none;stroke:#00ffff;stroke-width:2"/>
<polyline points="506.5 101.1,506.5 103.4,506.7 109.2,506.8 110.9,507.0 112.5,507.1 114.1,507.2 115.7,507.5 117.2,507.8 118.2,508.0 119.1,508.1 119.6" style="fill:none;stroke:#00ffff;stroke-width:2"/>
<polyline points="516.5 100.7,517.0 102.1,517.0 103.9,516.8 111.4,516.7 112.2,516.6 114.2,516.6 117.2" style="fill:none;stroke:#00ffff;stroke-width:2"/>
<polyline points="495.1 99.8,499.7 98.0,501.0 97.5,503.3 97.1,504.3 97.5,505.4 98.2,506.5 99.3,507.6 100.7,508.9 102.2,510.2 104.0,511.5 105.6,513.0 107.1,514.6 108.3,516.3 109.1,519.0 109.6,521.3 109.4,523.5 108.8,525.5 108.0,527.5 106.8,529.3 105.6,530.7 104.3,531.8 103.0,532.8 101.9,533.6 100.8,534.7 99.2,535.5 97.8,536.4 96.6" style="fill:none;stroke:#00ffff;stroke-width:2"/>
<polyline points="557.9 109.8,558.4 110.7,558.4 112.5,558.6 114.4,558.7 115.8,558.9 117.7,559.4 122.4,559.7 124.6,560.2 130.1,560.5 132.2,560.7 134.4,561.0 135.9,561.2 136.9" style="fill:none;stroke:#00ffff;stroke-width:2"/>
<polyline points="558.4 114.3,559.8 110.2,562.0 107.5,562.9 106.2,563.3 106.0,564.1 105.4,564.8 104.8,565.4 104.5,566.0 104.3,566.5 104.2,567.0 104.1,567.5 104.0,568.0 104.2,568.9 104.8,569.7 105.6,570.3 106.5,570.9 107.5,571.5 108.7,571.8 109.9,572.1 111.2,572.2 112.5,571.9 114.0,571.2 115.2,570.3 116.6,568.5 117.9,566.9 118.7,565.1 119.2,563.3 119.6,561.7 119.8,560.4 119.6,559.2 118.9" style="fill:none;stroke:#00ffff;stroke-width:2"/>
<polyline points="580.7 108.9,584.3 112.1,586.6 112.1,588.0 111.6,588.1 111.5,588.6 111.2,589.0 110.6,589.5 110.0,589.7 109.3,589.9 108.5,590.0 107.4,589.9 106.5,589.5 105.7,588.7 104.9,588.0 104.2,586.9 103.8,586.0 103.5,585.1 103.3,584.0 103.2,583.0 103.1,582.2 103.3,581.3 103.7,580.8 104.1,580.3 104.7,580.0 105.6,579.8 106.4,579.6 107.5,579.9 108.7,580.4 109.9,581.2 111.2,582.0 112.3,583.0 113.4,584.2 114.2,585.4 114.9,586.7 115.3,588.2 115.6,590.1 115.8,591.8 115.5,593.3 115.1,594.8 114.5,596.1 113.7,597.1 112.8,598.1 111.9,598.8 110.8,599.3 110.0,599.6 109.1,600.0 108.2,600.3 107.3,600.6 106.6,600.8 105.9,600.9 105.4,601.2 104.8,601.5 104.3,601.9 104.0,602.5 103.6,603.2 103.2,603.8 103.0,604.5 102.8,605.1 102.7,605.8 102.7,606.2 102.6,606.7 102.6,607.0 102.9,607.2 103.5,607.3 104.1,607.4 105.1,607.4 106.1,607.5 107.1,607.7 108.5,608.0 109.6,608.3 110.4,608.7 111.2,609.3 111.8,609.8 112.4,610.3 112.7,611.0 113.0,611.5 113.1,612.1 113.2,612.6 113.3,613.1 113.3,613.9 112.4,614.5 111.6,615.1 110.6,616.0 108.7,616.1 108.0,616.3 107.2,616.4 106.5,616.5 106.1,616.6 105.6,616.6 106.3,616.6 106.9,616.6 107.6,616.8 108.8,617.1 109.6,617.6 110.5,618.3 111.2,619.0 111.8,620.0 112.4,622.0 113.4,622.9 113.6,624.1 113.9,625.0 113.9" style="fill:none;stroke:#00ffff;stroke-width:2"/>
<polyline points="620.3 91.6,620.3 93.1,619.6 92.3" style="fill:none;stroke:#00ffff;stroke-width:2"/>
<polyline points="633.0 102.5,633.0 104.3,632.9 108.6,632.8 109.9,632.7 111.2,632.7 112.3,632.8 113.3,633.1 114.4,633.6 114.9,634.2 115.5,635.0 115.9,635.8 116.1,636.6 115.9,637.8 115.1,638.7 114.1,639.4 113.0,639.9 112.1,640.2 110.9,640.4 109.9,640.1 108.9,639.7 107.9,638.9 106.9,637.7 106.2,636.5 105.3,635.3 104.7,634.0 104.3,632.8 104.0,632.0 103.6,631.2 103.4,630.8 103.3,631.6 103.7,632.7 104.1,633.8 104.5,635.2 104.9,636.8 105.4,638.4 105.6,639.9 105.8,641.3 105.9,642.6 106.0" style="fill:none;stroke:#00ffff;stroke-width:2"/>
<polyline points="647.6 102.5,648.1 107.5,649.0 108.9,649.4 110.7,649.7 111.0,650.5 111.7,651.3 112.3,652.3 112.9,653.2 113.2,654.2 113.4,655.3 113.2,656.3 112.6,657.2 111.5,658.0 110.2,658.5 108.5,658.8 106.8,658.8 105.1,658.3 103.5,657.5 102.0,655.8 100.8,654.3 100.0,652.9 99.9,651.7 100.1,650.6 100.9,649.7 101.6,649.2 102.6,648.8 103.2" style="fill:none;stroke:#00ffff;stroke-width:2"/>
<polyline points="657.2 81.6,657.2 85.2,658.1 88.4,659.0 92.0,660.0 95.4,661.4 99.0,662.7 101.6,664.0 103.8,665.5 105.6,666.9 106.7" style="fill:none;stroke:#00ffff;stroke-width:2"/>
<polyline points="690.4 107.1,686.3 109.8,685.9 110.7,685.9 112.5,685.9 113.0,686.0 113.8,686.3 114.5,686.8 115.1,687.7 115.4,688.7 115.7,689.6 115.8,690.8 115.9,691.8 115.6,692.6 115.1,693.2 114.5,693.8 113.6,694.2 112.7,694.5 111.6,694.6 110.5,694.7 109.4,694.4 108.4,693.9 107.4,693.1 106.7,692.1 106.0,691.2 105.6,690.2 105.3,689.3 105.2,688.6 105.0,688.1 105.1,688.6 105.6,689.5 105.9,690.5 106.2,691.8 106.3,693.3 106.4,695.1 106.5,696.8 106.1,699.4 105.0,701.3 103.8,703.3 102.1,705.0 100.3,706.4 97.9,708.9 92.7,709.7 90.6,710.4 88.2,710.9 86.2,711.2 84.6,711.2 83.2,711.1 82.4,710.8 81.6,710.3 81.2,709.9 80.8,709.4 81.0,709.0 81.6,708.3 82.8,707.8 84.6,707.1 87.1,706.5 90.1,705.8 93.5,705.0 99.2,704.3 104.1,703.8 108.7,703.4 113.2,703.2 117.3,703.0 120.9,703.1 124.0,703.5 126.7,704.2 128.7,705.2 130.2,706.3 131.1,707.7 131.7,709.0 131.8,710.1 131.1,711.2 129.9,712.2 127.4,712.8 125.0,713.2 122.6,713.3 120.3,712.9 118.4,712.1 116.6,710.9 115.2,709.8 114.3,708.5 113.7,707.4 113.3,706.6 113.1,706.1 113.1,705.7 113.4,705.6 113.9,706.3 114.6,707.4 115.3,708.9 115.9,710.8 116.3,713.0 116.6,715.6 116.5" style="fill:none;stroke:#00ffff;stroke-width:2"/>
<polyline points="737.7 105.2,733.2 108.9,732.7 109.8,732.7 111.2,732.7 111.5,732.7 112.4,733.1 114.4,733.7 115.2,734.5 116.0,735.4 116.7,736.2 117.1,736.9 117.4,737.7 117.4,738.4 117.1,739.0 116.6,739.5 115.7,739.8 114.7,740.0 113.4,740.2 111.9,740.1 110.5,739.7 108.9,738.9 107.6,738.2 106.5,737.4 105.6,736.7 104.8,735.9 104.4,735.5 104.1,735.2 103.8,736.1 103.7,737.0 103.6,738.3 103.5,739.8 103.3,741.2 103.0,744.2 102.3,745.4 101.7,746.7 101.2,747.9 100.7,749.3 100.2,749.6 100.1,749.9 100.6,750.3 101.7,750.7 102.8,750.9 104.0,751.3 105.1,751.7 106.3,751.9 107.4,752.2 108.4,752.6 109.2,753.0 109.9,753.4 110.5,753.6 111.1,754.2 111.6,754.7 111.9,755.1 112.1,755.6 112.2,756.0 112.3,756.5 112.4,757.0 112.4,757.4 112.5,757.9 112.3,758.3 112.0,758.6 111.5,759.0 111.1,759.2 110.6,759.3 110.2,759.6 109.7,759.7 109.2,760.0 108.6,760.2 108.1,760.5 107.5,760.6 106.7,760.9 106.0,761.1 105.2,761.2 104.6,761.5 103.8,761.6 103.2,761.7 102.6,761.8 102.1,761.8 101.6,761.8 101.1,761.8 100.6,761.9 100.2,761.9 100.9,762.1 101.8,762.1 103.1,762.4 104.4,763.1 107.5,763.4 108.7,764.5 111.3,764.9 112.0" style="fill:none;stroke:#00ffff;stroke-width:2"/>
<polyline points="769.6 83.9,769.6 85.4,768.9 84.6" style="fill:none;stroke:#00ffff;stroke-width:2"/>
<polyline points="777.8 100.2,777.8 104.3,778.0 108.6,778.3 109.0,778.6 109.3,779.0 109.5,779.4 109.2,780.0 108.3,780.5 107.2,781.2 105.8,781.6 104.4,782.0 102.9,782.3 101.5,782.5 100.2,782.6 99.1,782.5 98.2,782.1 97.7,781.7 97.3,781.1 97.7,780.6 98.3,780.3 99.4,780.0 100.7,779.9 102.4,780.0 104.1,780.4 106.2,781.2 108.3,782.9 112.9,783.8 114.9,784.7 117.3,785.3 119.5,785.7 121.4,785.6 122.9,785.2 124.4,784.4 125.7,783.3 126.6,782.3 127.4,781.2 127.9,780.1 128.2,779.1 128.5,778.4 128.4,777.9 127.3,777.6 126.2,777.3 124.7,777.4 123.1,777.8 121.2,778.3 119.4,779.0 117.4,779.7 115.7,780.3 113.9,781.1 112.3,781.9 110.9,783.4 108.3,784.2 107.3,785.2 105.9,786.3 104.5,787.3 103.3,788.3 102.2,789.6 100.7,789.8 100.4,790.1 100.0,790.4 100.4,790.6 101.0,790.9 101.9,791.3 103.0,791.5 104.1,792.0 105.9,792.9 108.8,793.3 109.7,793.8 110.7,794.5 111.5,795.0 112.0,795.5 112.3" style="fill:none;stroke:#00ffff;stroke-width:2"/>
<polyline points="798.3 84.3,798.3 85.8,797.5 85.1" style="fill:none;stroke:#00ffff;stroke-width:2"/>
<polyline points="802.4 100.7,802.8 105.7,803.3 107.5,803.3 108.9,803.3 109.4,803.3 110.0,803.5 107.6,803.8 106.8,804.1 105.7,804.7 104.7,805.1 104.0,805.8 103.5,806.6 103.2,807.4 102.9,808.2 103.0,808.9 103.4,809.7 103.9,810.3 104.8,810.9 105.8,811.2 106.9,811.5 108.5,811.6 109.4,811.7 110.3,811.8 111.1,812.1 111.9" style="fill:none;stroke:#00ffff;stroke-width:2"/>
<polyline points="827.4 103.0,827.0 102.1,825.2 102.1,823.3 103.4,823.3 103.6,822.6 104.4,821.8 105.4,821.2 106.5,820.7 107.7,820.2 108.8,819.9 109.8,819.7 110.8,819.5 111.5,819.6 112.0,820.4 112.3,821.3 112.4,822.4 111.6,823.6 110.8,824.8 109.6,825.9 108.1,827.5 105.4,827.8 104.6,828.1 103.7,828.3 102.8,827.9 102.6,827.8 103.2,827.7 104.0,827.6 105.0,827.9 106.1,828.6 107.1,829.7 108.0,831.1 108.8,832.6 109.3,834.9 109.0,836.8 108.4,839.0 106.4,840.7 104.3,841.9 101.8,843.1 99.1,843.8 96.2,844.2 93.2,844.5 90.3,844.8 87.5,844.7 84.9,844.5 82.4,843.9 80.2,843.4 78.7,842.9 77.7,842.6 77.2,842.4 78.2,842.3 79.7,842.2 81.8,842.1 84.2,842.1 87.1,842.0 94.0,842.0 98.6,842.0 102.7,842.2 106.1,842.7 109.0,843.3 111.3,844.0 112.8" style="fill:none;stroke:#00ffff;stroke-width:2"/>
<polyline points="866.1 111.6,866.6 112.5,867.5 113.0,868.9 113.4,869.2 113.4,869.9 113.4,870.9 113.4,872.8 113.2,873.3 113.2,874.0 112.9,874.4 112.4,874.7 111.8,874.5 110.8,874.1 109.8,873.3 108.6,872.3 107.4,871.4 106.1,869.6 103.7,869.0 102.6,868.5 101.4,868.1 100.6,867.9 99.8,867.8 99.2,867.7 98.6,867.6 98.0,868.0 97.7,868.5 97.3,869.1 96.9,869.9 96.4,871.0 96.2,872.2 96.0,873.5 95.9,874.8 95.8,876.1 95.8" style="fill:none;stroke:#00ffff;stroke-width:2"/>
<polyline points="885.2 107.1,885.2 112.1,885.2 113.4,885.2 115.7,885.2 116.1,885.2 117.0" style="fill:none;stroke:#00ffff;stroke-width:2"/>
<polyline points="889.3 90.7,889.3 92.2,888.6 91.4" style="fill:none;stroke:#00ffff;stroke-width:2"/>
<polyline points="898.0 105.2,897.1 110.2,897.1 112.1,897.1 116.1,897.3 116.1,897.5 115.5,897.9 114.5,898.4 113.3,899.1 112.2,899.9 111.2,900.7 110.4,901.3 109.7,902.1 109.3,902.9 109.0,903.6 109.0,904.4 109.3,905.0 110.1,905.4 111.0,905.7 112.2,905.8 114.6,905.8 117.4" style="fill:none;stroke:#00ffff;stroke-width:2"/>
<polyline points="928.0 108.0,923.9 107.5,922.1 107.5,920.7 107.1,921.6 107.1,922.1 107.3,923.2 107.4,924.5 107.4,925.9 107.4,927.7 107.5,929.5 107.7,931.4 107.8,933.7 107.8,935.9 108.1,938.2 108.2,940.4 108.3,942.5 108.3,944.5 108.5,946.8 108.7,951.0 108.8,951.8 108.8,952.7 108.8,954.1 108.9,955.6 108.9,957.1 108.9" style="fill:none;stroke:#00ffff;stroke-width:2"/>
<polyline points="958.1 95.7,956.3 95.7,957.2 96.6,958.5 97.1,958.9 97.2,959.8 97.7,960.8 98.3,962.0 98.8,963.2 99.5,964.5 100.3,965.6 100.9,966.7 101.5,967.7 102.2,968.6 102.8,969.4 103.1,970.0 103.6,970.5 104.0,970.9 104.3,971.2 104.6,971.4 105.0,971.5 105.4,971.4 105.9,971.0 106.3,970.4 106.9,969.7 107.6,968.6 108.6,967.2 109.5,965.7 110.8,963.9 112.1,962.1 113.4,957.8 116.7,956.5 117.9,955.1 119.0,954.1 119.9,953.5 120.7,953.0 121.1,952.7 121.5" style="fill:none;stroke:#00ffff;stroke-width:2"/>
<polyline points="969.5 125.7,969.5 127.5,969.0 128.5,969.0 130.3,968.8 130.7,968.7 132.0,968.3 133.6,968.1 135.2,967.7 136.9" style="fill:none;stroke:#00ffff;stroke-width:2"/>
<polyline points="964.0 161.7,964.0 166.2,964.0 168.1,964.0 169.9,964.0 170.1,964.0 170.9" style="fill:none;stroke:#00ffff;stroke-width:2"/>
<polyline points="964.4 195.4,964.4 196.9,963.7 196.1" style="fill:none;stroke:#00ffff;stroke-width:2"/>
<polyline points="967.2 204.9,966.7 209.5,966.7 211.7" style="fill:none;stroke:#00ffff;stroke-width:2"/>
<polyline points="966.3 236.3,966.3 237.8,965.5 237.1" style="fill:none;stroke:#00ffff;stroke-width:2"/>
<polyline points="967.6 266.8,967.2 270.5,967.2 271.8,967.2 273.6" style="fill:none;stroke:#00ffff;stroke-width:2"/>
<polyline points="969.5 288.7,968.5 292.8,968.1 294.6,968.1 296.4" style="fill:none;stroke:#00ffff;stroke-width:2"/>
<polyline points="969.5 311.0,968.1 315.5,967.6 316.9,967.6 318.2,967.6 318.8,967.6 319.6,967.6 320.4" style="fill:none;stroke:#00ffff;stroke-width:2"/>
<polyline points="967.6 331.0,967.6 334.6,967.6 337.8,967.6 339.2,967.4 339.3,967.4 340.4" style="fill:none;stroke:#00ffff;stroke-width:2"/>
<polyline points="967.2 355.6,966.3 359.7,966.3 361.5,966.3 368.2,966.3 368.7" style="fill:none;stroke:#00ffff;stroke-width:2"/>
<polyline points="967.6 384.2,967.6 389.2,967.6 391.1,967.6 392.9,967.6 393.3,967.6 394.6,967.6 396.0" style="fill:none;stroke:#00ffff;stroke-width:2"/>
<polyline points="970.4 413.8,969.9 418.4,969.5 420.2,969.5 422.0,969.3 422.5,969.2 423.7,969.1 425.1,969.1 426.6" style="fill:none;stroke:#00ffff;stroke-width:2"/>
<polyline points="972.6 435.7,972.2 440.7,972.2 442.5,972.2 444.3,972.4 444.8,972.7 445.8" style="fill:none;stroke:#00ffff;stroke-width:2"/>
<polyline points="977.2 457.5,977.2 462.5,977.2 471.0,977.2 474.8,977.2 474.9" style="fill:none;stroke:#00ffff;stroke-width:2"/>
<polyline points="980.4 481.6,978.6 487.6,977.7 493.0,976.7 496.2,976.9 497.2,976.4 500.0,976.1 503.3,975.6 507.0" style="fill:none;stroke:#00ffff;stroke-width:2"/>
<polyline points="423.6 589.0,424.6 589.5,425.0 590.9,425.5 591.8,425.6 592.4,425.9 593.6,426.2 594.9,426.6 596.6,427.0 598.3,427.5 600.3,427.7 601.9,428.1 603.5,428.4 605.4,428.8 606.8,429.1 607.9,429.2 608.6,429.3 609.2,429.4 609.6,429.5 608.6,429.5 606.7,429.5 605.9,429.7 602.6,429.8 601.8,430.1 600.4,430.4 599.5,430.8 598.5,431.3 597.6,431.6 597.0,431.9 596.4,432.0 596.1,432.5 596.3,432.9 596.8,433.3 597.7,433.8 598.9,434.6 600.9,435.2 602.5,435.8 604.0,436.3 605.5,436.8 606.8,437.3 607.7,437.6 608.3,437.9 608.0,438.2 607.3,438.5 606.3,438.9 605.1,439.5 603.7,440.0 602.4,440.5 601.0,441.2 599.7,441.5 598.9,442.2 597.8,442.3 597.6,442.5 597.1" style="fill:none;stroke:#ffff00;stroke-width:2"/>
<polyline points="453.7 600.0,456.9 602.2,460.1 602.2,461.9 602.1,462.6 601.8,463.1 601.4,463.5 601.1,463.9 600.7,464.1 600.1,464.3 599.2,464.4 598.3,464.5 596.9,464.3 595.9,464.1 594.9,463.6 594.1,462.9 593.7,462.4 593.1,461.7 592.9,460.9 592.6,460.1 592.5,459.5 592.4,458.7 592.5,457.9 593.4,457.0 594.3,456.5 595.6,456.2 596.8,456.0 598.3,455.8 599.9,455.7 601.6,456.0 603.1,457.1 606.0,457.8 607.0,459.2 608.5,460.7 609.2,462.3 609.8,463.9 610.2,465.9 609.8,467.9 609.0" style="fill:none;stroke:#ffff00;stroke-width:2"/>
<polyline points="512.4 592.7,508.3 593.6,507.0 594.1,506.0 595.0,505.6 595.2,504.9 596.0,504.2 597.0,503.4 598.1,502.5 599.3,501.6 601.1,501.2 602.8,500.8 604.4,500.6 605.9,500.8 607.2,501.4 608.5,502.5 609.5,503.8 610.3,505.5 610.8,507.4 611.1,509.4 611.0,511.3 610.2,513.2 608.9" style="fill:none;stroke:#ffff00;stroke-width:2"/>
<polyline points="519.2 573.6,518.8 576.8,519.2 578.1,520.2 580.4,520.2 581.0,520.5 582.5,521.1 584.3,521.6 586.2,522.0 588.2,522.3 590.3,522.7 592.5,522.9 594.5,523.0 596.1,523.1 597.4,523.4 598.5,523.5 599.3,523.6 599.8,523.7 600.6,523.7 599.8,523.8 599.2,524.0 598.5,524.2 597.7,524.8 596.9,525.2 596.2,525.7 595.6,526.5 595.2,527.2 595.0,527.7 594.8,528.9 594.9,529.8 595.3,530.8 595.9,531.7 596.7,532.4 597.8,533.1 598.9,533.7 600.1,534.0 601.2,534.2 602.2,534.4 603.4,534.7 604.4,534.8 605.3,535.1 606.1,535.3 606.8,535.4 607.3" style="fill:none;stroke:#ffff00;stroke-width:2"/>
<polyline points="548.8 596.3,545.2 601.3,544.7 603.6,544.7 605.4,544.9 605.9,545.2 606.7,545.7 607.4,546.4 608.0,547.7 608.5,548.9 608.9,550.0 608.9,551.2 608.8,552.3 608.1,553.3 607.5,554.1 606.5,554.8 605.3,555.3 604.0,555.5 602.7,555.7 601.4,555.7 600.3,555.1 599.0,554.5 598.1,553.5 597.5,552.7 597.1,551.8 596.9,551.1 596.7,550.4 596.8,549.9 597.1,549.5 597.7,549.3 598.4,549.1 598.9" style="fill:none;stroke:#ffff00;stroke-width:2"/>
<polyline points="560.2 600.9,559.8 605.4,560.2 606.8,561.1 607.7,561.4 607.9,562.2 608.4,563.1 608.8,564.2 609.0,565.4 609.2,566.5 609.3,568.7 608.8,569.4 608.0,570.2 607.1,570.8 605.8,571.2 604.3,571.5 602.5,571.7 601.0,571.6 599.3,571.0 597.9,570.0 596.7,568.9 595.8,567.4 595.0,565.9 594.6,564.3 594.2,562.9 594.4,561.6 594.8,560.5 595.4,559.8 596.3,559.3 597.3,559.0 598.4,558.8 599.5" style="fill:none;stroke:#ffff00;stroke-width:2"/>
<polyline points="578.0 607.7,582.5 606.3,583.4 605.4,584.3 604.1,584.2 603.7,584.3 603.0,583.9 602.2,583.4 601.6,582.5 600.8,581.5 600.0,580.4 599.4,579.2 598.6,578.5 597.8,578.0 597.3,577.7 596.8,577.5 596.3,577.3 595.8,577.6 595.3,578.1 595.1,578.9 594.9,579.7 594.6,580.8 594.4,581.7 594.3,582.7 594.2,583.6 594.5" style="fill:none;stroke:#ffff00;stroke-width:2"/>
<polyline points="596.2 601.3,600.7 600.4,602.1 599.1,602.5 597.7,602.8 597.4,603.2 596.6,603.6 595.7,603.9 594.8,604.0 593.8,604.2 593.1,603.6 592.3,602.9 591.8,602.1 591.5,601.1 591.5,599.9 592.0,598.9 592.8,597.9 594.0,597.2 595.3,596.5 596.9,596.1 598.5,596.2 600.8,596.8 602.5,597.8 604.0,598.8 605.1,600.2 605.8,601.7 606.3,603.4 606.6,605.0 606.4,606.8 606.0,608.5 605.5,609.9 604.6" style="fill:none;stroke:#ffff00;stroke-width:2"/>
<polyline points="650.3 581.8,649.4 582.2,649.0 583.1,647.9 585.5,647.6 586.2,647.3 586.9,646.9 587.5,646.5 588.0,646.1 588.8,645.8 589.3,645.5 589.9,645.1 590.4,644.7 591.3,644.3 592.1,644.0 593.0,643.7 593.9,643.5 594.6,643.3 595.0,643.8 595.3,644.4 595.5,645.3 595.6,646.5 595.7,647.9 595.8,649.5 595.8,651.1 595.8,656.1 595.9,660.1 596.3,660.1 596.8,660.7 597.7,661.2 598.5,661.5 599.5,661.8 600.7,661.9 601.7,662.2 602.9,662.3 604.2,662.6 605.3,662.8 606.3,663.1 607.3,663.6 608.1,664.3 608.7" style="fill:none;stroke:#ffff00;stroke-width:2"/>
<polyline points="679.0 590.4,677.7 595.0,677.7 596.3,677.7 603.3,677.5 602.6,677.4 600.9,677.3 599.3,677.3 597.4,677.0 593.9,676.7 591.2,676.6 590.4,676.5 589.6,677.0 590.1,677.6 591.3,678.5 592.7,679.5 594.4,681.9 598.1,683.6 600.6,685.2 602.8,686.5 604.5,687.7 605.7,688.7 606.7,689.4 607.3,689.9 607.8,690.4 608.1,690.7 608.2,691.1 608.2,691.3 607.8,691.7 607.2,692.0 606.6,692.2 605.6,692.6 604.6,693.0 603.2,693.8 599.7,694.3 597.9,694.9 595.6,695.2 593.4,695.6 591.2,696.0 589.3,696.3 587.6,696.4 586.0,696.7 584.9,696.9 584.0,697.0 583.4,697.5 582.7,697.9 582.6" style="fill:none;stroke:#ffff00;stroke-width:2"/>
<polyline points="718.6 605.0,721.4 607.3,722.7 607.3,724.5 607.7,725.0 607.6,726.1 607.7,727.4 607.7,730.0 607.5,730.9 607.2,732.1 606.7,732.9 606.3,733.5 605.8,733.8 605.1,734.1 604.4,734.0 603.8,733.7 603.3,733.2 602.7,732.5 602.2,731.7 601.8,730.9 601.1,730.1 600.3,729.3 599.5,728.6 598.7,727.8 597.8,727.3 596.8,726.8 595.8,726.5 595.0,726.3 594.4,726.2 594.0,726.5 593.7,727.2 593.5,728.1 593.4,729.3 593.3,730.5 593.3" style="fill:none;stroke:#ffff00;stroke-width:2"/>
<polyline points="750.5 595.4,748.7 598.6,748.2 600.0,747.8 600.9,747.6 601.1,747.3 601.9,747.0 602.7,746.8 603.5,746.5 604.2,746.3 605.0,746.2 605.6,746.5 606.4,747.0 607.0,747.6 607.4,748.5 607.6,749.4 607.8,750.3 607.9,751.4 607.8,752.4 607.6,753.3 607.1,754.1 606.5,754.7 605.2,755.1 603.6,755.4 602.7,755.6 601.7,755.3 601.0,754.9 600.3,754.1 599.7,753.1 599.3,752.0 599.1,751.0 598.9,750.0 599.2,749.0 599.5,748.3 600.2,747.8 601.3,747.7 602.3,748.1 603.1,748.9 603.5" style="fill:none;stroke:#ffff00;stroke-width:2"/>
<polyline points="750.5 595.4,750.5 596.9,749.7 596.2" style="fill:none;stroke:#ffff00;stroke-width:2"/>
<polyline points="762.3 599.5,765.1 600.0,765.5 600.9,765.6 601.1,765.7 602.1,765.8 602.6,765.9 603.3,765.9 603.9,765.9 604.4,765.9 605.0,766.1 604.1,766.2 603.4,766.5 602.7,766.6 601.9,766.9 601.2,767.2 600.6,767.6 600.2,768.0 600.0,768.6 599.8,769.3 599.9,769.9 600.3,770.4 600.9,771.0 601.4,771.3 602.0,771.7 602.8,772.0 603.7,772.5 602.7,772.9 601.9,773.4 600.8,773.8 599.9,774.3 599.1,774.7 598.5,775.2 598.1,775.6 597.8,776.3 597.6,777.0 597.7,777.8 598.3,778.6 599.1,779.5 600.1,780.2 601.2,780.8 602.4,781.3 603.7,782.1 604.6,782.6 605.4,783.2 605.8,783.7 606.2" style="fill:none;stroke:#ffff00;stroke-width:2"/>
<polyline points="789.6 596.8,790.1 601.3,791.0 603.2,792.3 605.6,793.2 607.1,794.1 609.1,794.9 611.2,795.8 613.6,796.5 615.9,797.1 618.2,797.7 620.1,798.1 621.4,798.3 622.3,798.1 621.8,797.6 620.7,796.8 619.0,796.0 617.0,794.8 613.6,793.8 610.9,793.2 608.3,792.8 606.0,792.5 603.9,792.5 602.0,792.6 600.5,793.1 599.4,793.7 598.7,794.6 598.2,795.4 598.3,796.7 599.6,797.5 601.1,798.1 602.8,798.3 604.8,797.9 606.8,797.1 608.8,796.0 610.3,794.5 611.4,792.9 612.2" style="fill:none;stroke:#ffff00;stroke-width:2"/>
<polyline points="800.1 603.2,805.6 603.2,806.9 601.8,808.8 600.4,809.2 599.9,811.4 597.3,812.6 595.8,813.8 593.2,814.5 591.1,815.0 589.1,815.4 587.1,815.4 585.2,815.1 583.5,814.6 581.9,813.9 580.6,813.2 579.4,812.4 578.5,812.0 577.9,811.5 577.5,811.2 577.3,810.8 577.1,810.4 577.6,810.2 578.1,810.0 579.0,809.9 580.0,809.6 581.2,809.5 582.4,809.4 583.6,809.1 584.9,809.0 586.3,808.9 587.8,808.9 589.2,808.8 590.6,808.8 592.0,809.0 595.1,809.4 596.1,809.8 597.5,810.5 598.7,811.2 599.8,812.0 600.6,812.8 601.4,813.8 602.0,814.8 602.4,816.1 602.2" style="fill:none;stroke:#ffff00;stroke-width:2"/>
<polyline points="821.1 600.4,824.2 600.9,825.6 600.4,826.5 599.5,826.5 599.3,827.1 598.7,827.3 598.2,827.7 597.5,827.9 596.9,827.7 596.4,827.2 596.1,826.6 595.7,825.9 595.4,825.1 595.1,824.3 594.9,823.7 594.8,822.9 594.9,822.2 595.1,821.7 595.6,820.9 596.8,820.5 597.7,820.2 598.7,820.1 599.6,820.1 600.6,820.3 601.3,820.8 602.2,821.6 603.0,822.6 603.7,823.7 604.3,825.1 604.9,826.6 605.4,828.0 605.7,829.5 605.9,830.9 606.1,832.0 606.2,833.0 606.2,833.9 605.9,834.7 605.4,835.1 604.5,835.6 603.5,836.1 602.4,836.4 601.2,837.0 598.5,837.3 597.6,837.7 596.5,838.1 595.6,838.7 594.7,839.4 594.0,840.2 593.4,841.0 592.8,841.9 592.5,842.9 592.2,843.9 592.3,845.0 592.6,846.1 593.4,847.2 594.3,848.1 595.4,848.8 596.6,849.3 598.0,849.6 599.4,849.6 600.7,849.3 602.1,848.7 603.1,848.1 603.9,847.2 604.4,846.3 604.7,845.4 604.6,844.5 604.0" style="fill:none;stroke:#ffff00;stroke-width:2"/>
<polyline points="757.3 599.1,757.8 600.0,758.2 603.2,758.4 603.4,758.5 604.2,758.8 604.8,759.3 605.3,759.9 605.7,761.6 604.9,762.4 604.7" style="fill:none;stroke:#ffff00;stroke-width:2"/>
<polyline points="882.1 596.8,880.2 597.2,878.9 597.7,878.0 598.1,877.7 598.3,877.3 598.6,876.5 599.3,875.9 600.0,875.3 600.8,875.0 601.9,874.6 602.8,874.3 603.8,874.2 604.7,874.1 605.6,874.4 606.5,874.9 607.4,875.5 608.2,876.3 608.6,877.2 608.9,878.3 609.1,879.5 609.3,880.8 609.0,882.1 608.3,883.2 607.6,884.2 606.6,885.1 605.5,885.8 604.5,886.2 603.5,886.5 602.6,886.3 601.5,885.9 600.4,885.3 599.7,884.6 599.0,883.8 598.4,883.0 597.8,882.4 597.5,881.6 597.2,881.0 597.1,880.4 597.0,879.8 596.9,879.3 597.3,879.0 597.4,878.8 597.9,879.3 598.1,879.8 598.3,880.7 598.4,881.5 598.5,882.5 598.5,883.7 598.3,884.7 598.1,885.9 597.8,887.2 597.4,888.2 597.0,889.5 596.6,890.6 596.2,891.6 595.7,892.4 595.5,893.1 595.3,893.7 595.0,894.2 594.8,895.0 594.7,895.9 595.0,896.6 595.3,897.3 595.9,897.8 596.6,898.4 597.3,898.9 598.3,899.2 599.2,899.4 600.1,899.5 600.9,899.6 601.7,899.7 602.2,899.9 601.0,900.4 600.0,900.8 598.8,901.5 597.8,902.2 596.8,902.8 596.2,903.5 595.6,904.1 595.2,904.9 595.0,905.9 595.4,906.8 595.9,907.7 597.0,908.6 598.1,909.6 599.4,910.5 601.0,911.4 602.4,912.3 603.6,913.4 604.7,914.6 605.6,915.8 606.2,917.1 606.5" style="fill:none;stroke:#ffff00;stroke-width:2"/>
<polyline points="937.6 578.6,939.0 583.6,939.9 585.4,940.3 586.8,940.6 587.3,941.4 588.3,942.2 589.4,943.2 590.4,944.3 591.6,945.7 592.4,947.0 593.2,948.8 593.8,950.3 594.4,951.6 594.7,952.8 594.9,953.6 595.1,954.4 595.2,954.9 595.1,955.2 594.9" style="fill:none;stroke:#ffff00;stroke-width:2"/>
<polyline points="941.7 590.4,947.2 588.1,949.0 587.7,950.3 587.2,950.9 586.9,951.9 586.5,952.8 586.1,953.7 585.9" style="fill:none;stroke:#ffff00;stroke-width:2"/>
<polyline points="955.8 572.7,955.8 575.4,956.3 578.6,956.4 579.0,956.7 580.3,956.8 581.9,957.3 584.4,957.6 586.5,957.9 588.8,958.7 592.9,959.1 595.1,959.2 595.6,959.3 596.2,959.3 595.4,959.4 594.7,959.6 593.8,959.7 592.7,959.9 591.9,960.3 591.2,960.4 590.6,960.8 590.1,960.9 589.7,961.2 589.5,961.6 589.4,962.2 589.6,962.6 590.1,963.5 590.9,964.3 592.1,965.2 593.3,966.1 594.6,967.2 595.9,968.1 597.0,969.1 597.9,970.2 598.4,971.3 598.8,972.2 599.0,973.2 599.2,974.1 599.1,975.1 598.7,975.8 598.2,976.5 597.3,977.0 596.3,977.4 595.1,977.6 594.1,977.8 593.1,977.9 592.1,977.6 591.6,977.1 591.0,976.4 590.7,975.9 590.4,975.0 591.0,974.4 592.0,973.7 593.1,973.4 594.5,973.1 596.0,973.2 597.6,973.5 599.1,974.4 600.5,975.8 601.8,977.5 602.7,979.4 603.3,982.8 603.5,985.2 603.1" style="fill:none;stroke:#ffff00;stroke-width:2"/>
<polyline points="1004.5 604.5,1008.2 606.3,1010.0 606.3,1011.8 605.9,1011.7 605.4,1011.9 604.5,1012.0 603.5,1011.7 602.2,1011.0 600.9,1010.1 599.4,1009.1 597.8,1007.9 596.1,1006.7 594.6,1005.2 592.9,1004.4 591.7,1003.8 591.0,1003.4 590.3,1003.2 589.9,1003.8 589.6,1004.6 589.6,1005.6 589.8,1006.9 590.0,1008.2 590.3,1009.9 590.7,1011.5 591.1,1012.5 591.3" style="fill:none;stroke:#ffff00;stroke-width:2"/>
<polyline points="1017.7 592.2,1018.6 595.9,1020.7 603.9,1021.4 607.7,1021.4 607.4,1021.7 608.1,1022.1 608.4" style="fill:none;stroke:#ffff00;stroke-width:2"/>
<polyline points="1022.3 582.2,1022.3 583.7,1021.5 583.0" style="fill:none;stroke:#ffff00;stroke-width:2"/>
<polyline points="1029.1 596.3,1030.5 600.4,1030.5 601.8,1030.8 600.6,1031.2 599.1,1031.6 598.0,1031.8 597.1,1032.2 596.6,1032.3 596.2,1032.9 595.9,1033.5 596.3,1034.4 597.2,1035.3 598.6,1036.4 600.5,1037.3 602.6,1038.1 605.0,1039.0 607.1,1039.8 609.5,1040.9 611.0,1041.9 611.5,1042.7 611.1" style="fill:none;stroke:#ffff00;stroke-width:2"/>
<polyline points="1042.7 570.4,1047.8 567.2,1049.1 566.7,1050.9 566.7,1051.2 566.8,1051.8 566.7,1052.3 566.9,1052.6 567.4,1052.8 568.2,1052.8 569.4,1052.2 571.0,1050.4 573.9,1048.8 576.2,1047.5 578.3,1046.3 580.2,1045.6 581.7,1045.1 582.8,1044.8 583.9,1044.9 584.7,1045.7 585.2,1047.0 585.6,1048.7 585.6,1051.5 585.0,1053.7 584.5,1055.8 583.8,1057.4 583.3,1058.6 582.7" style="fill:none;stroke:#ffff00;stroke-width:2"/>
<polyline points="1073.7 594.5,1074.6 595.0,1075.1 595.9,1075.8 597.2,1076.4 598.1,1077.3 599.9,1078.1 601.4,1079.0 602.8,1079.7 604.2,1080.5 605.5,1081.1 606.4,1081.7 607.2,1082.1 607.8,1082.5 608.2,1082.8 608.5,1083.1 608.7,1083.5 608.4,1084.1 607.2,1084.4 606.1,1084.8 604.7,1085.1 603.3,1085.2 602.1,1085.3 601.0,1085.4 600.2,1086.1 599.6,1086.7 600.2,1087.4 600.8,1088.2 601.5,1089.1 602.3,1090.4 603.5,1090.8 603.7,1091.4 604.0,1091.9 604.2,1092.6 604.3,1093.1 604.2,1093.5 604.1,1093.9 603.7,1094.3 603.4,1095.0 602.8,1095.7 601.9,1096.5 600.6,1097.3 599.4,1099.0 597.0,1099.6 596.2,1100.3 595.1,1100.8 594.4,1101.2 593.8,1101.6 593.3,1101.9 592.5,1102.0 592.0" style="fill:none;stroke:#ffff00;stroke-width:2"/>
<polyline points="1115.1 595.0,1110.6 597.2,1110.1 598.1,1109.2 599.1,1109.2 599.3,1108.7 600.9,1108.6 601.5,1108.5 602.3,1108.4 603.1,1108.8 603.7,1109.1 604.3,1109.9 604.7,1110.6 604.9,1111.6 605.1,1112.7 604.8,1113.9 604.4,1115.2 603.5,1116.3 602.7,1117.3 601.7,1118.7 599.8,1119.7 598.3,1120.5 596.8,1121.0 595.3,1121.3 593.9,1121.5 592.9,1121.7 592.0,1121.6 591.3,1121.4 590.9,1121.1 590.6,1120.5 591.3,1120.3 592.0,1120.1 592.9,1120.1 594.2,1120.3 595.5,1120.8 596.6,1121.4 597.8,1122.1 598.9,1122.9 599.9,1123.7 600.7,1124.6 601.4,1125.2 602.0,1126.0 602.4,1126.7 602.8,1127.3 603.1,1127.8 603.3,1128.1 603.4,1128.5 603.3,1129.0 602.9,1129.6 602.1,1130.1 601.1,1130.8 600.0,1132.2 597.4,1132.6 596.6,1133.0 595.7,1133.3 595.2,1133.9 594.9,1134.4 595.4,1134.8 595.9,1135.5 596.6,1137.4 598.8,1138.5 599.9,1139.8 601.2,1141.1 602.6,1143.9 605.3,1144.4 605.5,1145.0 606.0,1145.3 606.2,1145.6 605.8,1145.8 605.2,1145.9 604.2,1145.9 603.2,1146.2 602.0,1146.3 600.8,1146.6 599.5,1146.7 598.4,1147.2 596.7,1147.6 595.5,1148.0 594.3,1148.7 593.1,1149.2 592.2,1149.9 591.2,1150.3 590.5" style="fill:none;stroke:#ffff00;stroke-width:2"/>
<polyline points="1157.5 601.3,1162.0 602.2,1163.4 602.2,1164.7 601.8,1165.1 601.5,1166.0 601.1,1166.9 600.5,1167.6 599.4,1168.0 598.5,1168.3 597.5,1168.3 596.8,1167.7 596.0,1166.9 595.3,1165.8 594.7,1164.6 594.3,1163.1 594.1,1161.7 593.9,1160.4 594.0,1159.0 595.2,1158.0 596.2,1157.4 597.6,1157.0 599.2,1157.2 600.6,1157.9 601.8,1158.8 603.1,1160.2 604.1,1161.7 604.9,1163.5 605.3,1165.2 605.7,1167.8 605.5,1169.9 605.1,1172.0 604.4,1174.0 603.4" style="fill:none;stroke:#ffff00;stroke-width:2"/>
<polyline points="434.6 634.6,434.6 638.7,434.6 646.3,434.6 651.4,434.4 654.6,434.3 656.4,434.0 657.8,433.9 658.9,433.8 659.6,433.7 659.0,433.7 658.6,433.7 657.7,433.7 656.9,433.9 656.1,434.1 655.2,434.5 654.3,435.0 653.4,435.5 652.5,436.2 651.6,436.9 650.9,437.7 650.3,438.8 649.9,439.7 649.8,440.6 649.9,441.6 650.5,442.5 651.6,443.2 652.9,443.7 654.3,444.4 657.6,444.6 658.7,444.7 660.0,444.8 661.1,444.9 661.8,445.4 662.2,445.7 661.6,446.1 660.9" style="fill:none;stroke:#ffff00;stroke-width:2"/>
<polyline points="457.8 656.0,462.8 656.9,464.6 656.9,466.0 656.4,466.3 656.1,467.3 655.5,468.3 654.6,469.1 653.8,469.7 652.7,470.1 651.6,470.4 650.6,470.4 649.6,470.1 648.8,469.6 648.1,468.7 647.7,467.9 647.2,467.0 647.0,466.0 646.8,465.0 646.6,464.0 646.8,462.9 647.4,462.1 648.0,461.6 648.9,461.0 650.0,460.7 651.2,460.3 652.4,460.1 653.7,459.9 654.8,459.8 656.1,459.9 657.0,460.2 657.9,460.5 658.6,461.0 659.1,461.7 659.6,462.8 659.9,463.8 660.1,464.9 660.2,465.9 660.1,467.1 659.9,468.2 659.4,469.4 658.8,470.4 658.1,472.0 656.7,473.2 655.5,474.6 654.2,475.5 653.0,476.5 652.2,477.5 651.4,478.2 650.8,478.9 650.4,479.3 650.1,479.7 649.9,480.2 649.8,480.6 649.9,481.1 650.3,481.4 651.1,481.7 651.9,481.9 653.1,482.3 654.3,482.5 655.5,482.8 656.8,483.1 658.0,483.7 659.0,484.2 659.9,485.1 660.4,486.1 660.9,487.2 661.2,488.4 661.2,490.5 660.5,492.1 659.7,493.7 658.6,495.2 657.3,496.4 656.0,497.4 654.5,498.2 653.1,498.7 651.8,499.0 650.7,499.2 649.7,499.2 648.8,498.4 648.3,497.2 647.8,496.7 648.1,496.1 648.5,495.8 649.3,495.6 650.4,495.4 651.8,495.9 653.5,496.6 655.2,497.6 657.0,500.0 658.9,502.2 660.2,504.6 661.1,506.7 661.6,508.7 661.8" style="fill:none;stroke:#ffff00;stroke-width:2"/>
<polyline points="552.0 648.2,552.0 649.6,552.5 650.5,552.5 651.9,552.5 652.2,552.7 653.3,552.7 654.6,552.8 656.1,552.8 657.9,552.9 659.9,552.9 664.0,552.9 664.6,552.9 663.3,552.9 658.8,552.9 653.9,553.1 650.5,553.2 649.9,553.3 649.2,553.3 648.7,553.7 649.2,554.3 649.8,555.1 651.0,556.2 652.3,558.7 655.6,560.1 657.1,563.1 660.4,564.6 661.6,565.9 662.8,567.1 663.8,568.0 664.3,568.6 664.7,569.2 665.0,569.7 665.2,570.0 665.3,570.4 665.0,570.7 664.5,571.0 663.6,571.4 661.5,571.8 659.7,572.0 658.0,572.2 656.5,572.3 655.2,572.4 654.0,572.4 652.4,572.5 651.3,572.9 651.1,573.4 650.7" style="fill:none;stroke:#ffff00;stroke-width:2"/>
<polyline points="591.2 654.1,598.8 654.1,605.0 653.9,605.5 653.9,605.9 653.8" style="fill:none;stroke:#ffff00;stroke-width:2"/>
<polyline points="595.7 662.8,603.8 662.8" style="fill:none;stroke:#ffff00;stroke-width:2"/>
<polyline points="620.8 648.7,623.0 646.4,623.9 645.9,625.3 645.9,625.7 645.9,626.6 645.9,629.8 646.3,629.9 646.7,630.4 647.3,630.7 648.1,630.7 648.8,630.3 649.6,630.0 650.0,629.8 650.3,630.6 650.3,632.1 650.4,633.4 650.6,634.8 651.3,635.9 652.0,636.8 653.0,637.6 654.3,638.0 655.5,638.3 656.8,638.5 658.2,638.3 659.3,637.8 660.4,637.0 661.2,636.3 661.9,635.2 662.5,634.3 662.9,633.2 663.2,632.2 663.3,631.2 663.5,630.4 663.5,629.9 663.4,629.6 663.0" style="fill:none;stroke:#ffff00;stroke-width:2"/>
<polyline points="669.0 664.1,667.6 665.1,666.3 668.2,664.9 670.1,664.0 671.5,662.6 673.1,661.3 674.6,659.8 675.9,658.2 676.7" style="fill:none;stroke:#ffff00;stroke-width:2"/>
<polyline points="720.0 644.1,718.6 644.6,718.2 645.5,717.3 647.4,716.8 648.4,716.3 649.5,715.8 650.7,715.2 651.7,714.8 653.0,714.2 654.2,713.9 655.1,713.6 655.7,713.5 656.3,713.8 656.6,714.2 656.8,714.9 657.0,715.8 656.9,716.8 656.5,718.0 656.0,719.2 655.5,720.3 654.8,721.3 654.2,722.1 653.9,722.6 653.7,723.4 653.4,723.7 653.8,724.2 654.4,724.7 655.4,725.1 656.6,726.6 660.8,727.0 661.9,727.6 663.2,728.6 665.0,729.2 665.3" style="fill:none;stroke:#ffff00;stroke-width:2"/>
<polyline points="739.6 652.3,738.7 657.8,738.7 659.6,738.7 665.6,738.9 665.7,738.9 666.9,739.0 667.5,739.1 667.2,739.1 665.6,739.1 661.2,739.1 656.6,739.3 654.6,739.8 655.2,740.6 655.5,741.4 656.2,742.6 656.9,743.8 657.9,745.3 658.8,746.8 660.0,748.3 660.8,749.7 661.5,751.0 662.1,753.1 663.0,753.6 663.1,754.3 663.3,754.7 663.5,755.0 663.0,755.3 662.0,755.5 660.6,755.9 658.9,756.8 653.3,757.1 651.9,757.3 649.9,757.5 648.4,757.6 647.2,757.6 646.3,757.9 646.1,758.4 647.1,758.8 648.0" style="fill:none;stroke:#ffff00;stroke-width:2"/>
<polyline points="776.0 656.4,780.1 656.4,788.1 656.6,789.6 656.9,790.8 657.0,792.0 657.3,792.9 657.5,793.7 657.6,794.3 657.6,794.7 657.7" style="fill:none;stroke:#ffff00;stroke-width:2"/>
<polyline points="775.1 667.8,780.5 666.4,782.8 666.0,786.9 665.4,788.2 665.3,789.6 665.2,790.9 665.1,793.1 665.3,794.2 665.6,795.3 665.7,796.4 665.8" style="fill:none;stroke:#ffff00;stroke-width:2"/>
<polyline points="809.2 650.9,810.6 652.8,811.0 654.1,812.9 657.8,812.8 657.8,813.2 659.1,813.7 660.2,814.2 661.3,814.7 662.3,815.2 662.9,815.9 663.3" style="fill:none;stroke:#ffff00;stroke-width:2"/>
<polyline points="824.7 654.1,823.8 650.0,825.2 648.2,826.7 646.5,827.3 646.1,828.0 645.9,828.6 645.8,829.4 645.7,830.0 645.6,830.3 645.8,830.8 646.2,831.0 646.8,831.2 647.7,831.3 648.9,831.4 650.3,831.0 651.9,830.5 653.3,830.1 654.8,829.4 656.2,828.9 657.6,828.4 658.8,827.9 659.9,827.6 660.7,827.4 661.2,827.2 662.0,827.7 662.2,828.5 662.4,829.6 662.5,831.0 662.6,832.7 662.7,834.6 662.7,836.4 662.5,838.3 662.3,839.9 662.0,841.5 661.6,843.0 661.2,844.2 660.8,845.4 660.3,846.4 659.9,847.4 659.5,848.4 659.0,849.2 658.6" style="fill:none;stroke:#ffff00;stroke-width:2"/>
</svg>