<svg version="1.1" xmlns="http://www.w3.org/2000/svg" viewBox="74.0 129.5 838.7 411.4">
<rect x="74.0" y="129.5" width="838.7" height="411.4" fill="#202124" />
<polyline points="231.3 139.3,231.3 139.3,230.6 202.0,230.0 264.7,229.4 327.3,228.7 390.0,228.1 452.7,227.3 531.1" style="fill:none;stroke:#ffffff;stroke-width:2"/>
<polyline points="94.0 351.2,94.0 351.2,216.2 350.5,338.4 349.9,460.6 349.3,582.8 348.6,705.0 348.0,857.8 347.2" style="fill:none;stroke:#ffffff;stroke-width:2"/>
<polyline points="835.8 325.2,835.8 325.2,862.4 341.8" style="fill:none;stroke:#ffffff;stroke-width:2"/>
<polyline points="863.1 345.2,863.1 345.2,831.1 367.2" style="fill:none;stroke:#ffffff;stroke-width:2"/>
<polyline points="229.3 144.6,229.3 144.6,213.9 166.6" style="fill:none;stroke:#ffffff;stroke-width:2"/>
<polyline points="231.3 145.9,231.3 145.9,246.6 173.3" style="fill:none;stroke:#ffffff;stroke-width:2"/>
<polyline points="225.3 201.2,231.2 201.5,231.9 201.6,232.6 201.7,233.3 201.8,234.3 201.8,235.9 201.9,236.5 201.9,240.6 201.9,244.6 201.9,244.7 201.9,244.0 201.9,243.5 202.2" style="fill:none;stroke:#ff0000;stroke-width:2"/>
<polyline points="186.6 209.9,188.6 207.9,191.9 205.2,192.6 204.5,193.3 203.8,194.0 203.1,195.5 201.9,195.7 201.6,196.0 201.2,196.5 201.0,196.8 200.6,197.2 200.4,197.7 201.1,198.0 201.9,198.2 202.6,198.6 203.6,198.8 204.7,199.0 205.6,199.1 206.7,199.4 207.9,199.6 208.8,199.7 209.9,199.8 210.6,199.8 211.6,199.9 212.4,199.9 213.8,199.9 214.2,199.9 214.5,200.2 215.0,200.6 215.3" style="fill:none;stroke:#ff0000;stroke-width:2"/>
<polyline points="227.9 274.5,234.3 274.5,235.9 275.2,237.3 275.2,237.6 275.2,238.0 275.2,238.4 275.2,239.3 274.4" style="fill:none;stroke:#ff0000;stroke-width:2"/>
<polyline points="167.3 267.9,166.0 267.2,164.6 268.5,164.0 269.9,164.1 270.2,164.0 270.6,164.0 271.1,164.0 271.6,164.0 272.2,164.0 274.0,164.2 274.8,164.6 275.6,165.7 277.6,166.2 278.2,166.8 279.1,167.5 279.5,168.1 279.9,168.8 280.1,169.5 280.2,170.1 280.3,170.5 280.4,171.0 280.4,171.3 280.2,171.8 280.1,172.1 279.7,172.3 279.3,172.4 278.8,172.5 277.9,172.5 276.9,172.5 275.8,172.6 274.3,172.6 270.3,172.3 270.2,172.2 269.3,171.8 268.8,171.7 268.2,171.5 267.9,171.2 267.7,171.0 267.2,170.6 267.0,170.1 266.9,169.6 266.8,169.0 266.7,168.6 266.6,168.1 266.9,167.9 267.3,167.4 267.7,167.1 268.6,167.0 269.3,166.9 270.2" style="fill:none;stroke:#ff0000;stroke-width:2"/>
<polyline points="195.9 261.2,195.9 262.5,196.2 265.9,196.3 266.4,196.7 266.7,197.2 266.3,198.0 266.2,198.7 265.8,199.4 265.6,200.3 265.5,201.1 265.4,202.2 265.3,203.0 265.3,204.4 265.3,205.4 265.5,206.3 265.6,207.1 266.0,207.6 266.4,208.2 267.0,208.6 267.5,209.1 268.2,209.4 269.1,209.6 269.8,209.7 270.5,209.8 271.5,209.8 272.4,209.0 273.7,208.4 274.7,207.5 275.8,206.7 276.8,205.7 277.6,204.8 278.4,202.8 279.8" style="fill:none;stroke:#ff0000;stroke-width:2"/>
<polyline points="196.6 261.9,201.3 259.9,203.3 259.2,203.8 259.1,204.9 258.6,206.3 258.1,207.6 257.8,208.6 257.3" style="fill:none;stroke:#ff0000;stroke-width:2"/>
<polyline points="188.6 284.5,188.6 286.0,187.9 285.3" style="fill:none;stroke:#ff0000;stroke-width:2"/>
<polyline points="259.3 273.2,260.6 273.9,263.3 273.9,268.7 273.9,275.4 273.9,280.9 273.9,285.1 273.9,286.9 273.9" style="fill:none;stroke:#0000ff;stroke-width:2"/>
<polyline points="313.9 271.9,321.6 271.9,331.1 271.9,336.7 271.9,336.2 271.9,336.9 271.9,338.7 271.6,339.2 271.5" style="fill:none;stroke:#0000ff;stroke-width:2"/>
<polyline points="369.9 273.9,373.9 273.2,374.2 273.3,375.4 273.3,376.6 273.0,377.8 272.8,379.9 272.7,383.1 272.6,384.3 272.6,388.9 272.6,392.1 272.3,393.7 272.2,395.7 271.8,397.4 271.3,399.6 270.8,401.3 270.5,402.7 270.3,403.8 270.1,404.8 269.8,405.6 269.6,406.4 269.5,407.2 269.4,407.6 269.3,408.2 269.0,408.5 268.9" style="fill:none;stroke:#0000ff;stroke-width:2"/>
<polyline points="439.2 273.2,442.6 272.5,443.9 272.5,444.2 272.6,444.8 272.5,450.5 272.5,455.7 272.5,460.2 272.5,464.9 272.5,469.8 272.5,473.6 272.3,474.2 272.1,475.3 272.1,475.9 272.0,476.6 271.6,477.0 271.2,477.3 270.4" style="fill:none;stroke:#0000ff;stroke-width:2"/>
<polyline points="503.2 271.9,509.7 272.2,510.8 272.3,511.9 272.4,513.1 272.7,514.6 272.9,516.0 273.0,517.7 273.1,519.4 273.1,521.3 273.1,526.0 273.2,530.5 273.5,531.7 273.6,533.5 273.7,535.0 273.8,536.2 274.1,537.5 274.2,539.5 274.4,540.2 274.4,541.7 274.5" style="fill:none;stroke:#0000ff;stroke-width:2"/>
<polyline points="571.9 279.2,580.7 279.5,585.2 279.9,589.8 279.9,590.2 279.9,591.9 279.9,596.7 279.9,600.8 279.9,604.2 279.9" style="fill:none;stroke:#0000ff;stroke-width:2"/>
<polyline points="637.8 279.2,644.8 279.5,646.4 279.6,648.1 279.7,650.0 279.8,654.5 279.8,655.5 279.8,659.6 279.9,661.3 279.6,663.2 279.5,665.1 279.4,667.0 279.3,671.1 279.2,673.5 278.7" style="fill:none;stroke:#0000ff;stroke-width:2"/>
<polyline points="713.8 278.5,716.5 277.9,717.8 277.9,718.4 277.9,719.7 277.9,723.4 277.6,725.2 277.5,727.4 277.1,729.2 276.9,730.8 276.8,732.3 276.7,733.8 276.7,736.0 276.6,737.2 276.6,737.8 276.6,740.1 276.8,740.2 277.2" style="fill:none;stroke:#0000ff;stroke-width:2"/>
<polyline points="767.8 277.2,780.9 277.2,786.5 277.2,788.5 276.5,788.9 276.4,790.3 275.9,791.6 275.4,792.8 274.8,793.9 274.5,795.1 274.0,796.0 273.8,796.9 273.6,798.0 273.5,798.8 273.4,799.9 273.3,801.9 273.3,802.9 273.2,807.1 273.2,809.2 273.2" style="fill:none;stroke:#0000ff;stroke-width:2"/>
<polyline points="303.9 343.2,302.6 343.2,301.3 343.8,301.3 345.2,301.3 345.8,301.3 346.5,301.3 347.2,301.3 352.5,301.3 357.6,301.3 361.8,301.3 362.6" style="fill:none;stroke:#ff0000;stroke-width:2"/>
<polyline points="379.2 340.5,379.2 341.8,378.6 345.2,378.7 345.4,378.6 346.4,378.6 347.7,378.6 352.0,378.9 355.9,379.0 356.6,379.3 357.5,379.5 358.1,379.6 358.4" style="fill:none;stroke:#ff0000;stroke-width:2"/>
<polyline points="453.9 345.2,453.9 346.5,453.6 349.5,453.5 350.4,453.4 351.4,453.3 352.6,453.3 353.7,453.3 355.3,453.5 358.9,453.6 360.7" style="fill:none;stroke:#ff0000;stroke-width:2"/>
<polyline points="534.5 342.5,533.9 344.5,533.9 346.5,533.6 349.4,533.4 352.0,533.3 354.2,533.3 355.9" style="fill:none;stroke:#ff0000;stroke-width:2"/>
<polyline points="207.9 368.5,204.6 369.8,203.9 371.2,201.6 375.9,200.8 377.7,200.2 379.0,199.9 380.0,199.7 380.9,199.6 381.7,199.5 382.4,199.7 382.9,200.0 383.5,200.5 384.1,201.3 384.4,202.3 384.7,203.4 384.8,204.8 384.9,206.2 385.0,207.5 385.1,209.2 384.8,210.6 384.2,212.3 383.6,213.8 382.6,215.3 381.6,216.5 380.8,217.4 379.7,218.3 378.5,218.9 377.6,219.2 376.7,219.5 375.6,219.6 374.8,219.4 373.7,219.1 372.8,218.7 371.7,218.2 370.8,217.6 370.0,217.0 369.5,216.4 368.9,215.7 368.5,215.4 368.3,214.8 368.1,214.3 368.0,213.4 368.0,212.6 368.2,211.6 368.9,210.5 369.7,209.3 371.0" style="fill:none;stroke:#ff0000;stroke-width:2"/>
<polyline points="294.6 378.5,294.6 382.5,295.3 383.8,295.3 385.2,295.2 385.5,295.3 386.1,295.3 390.1,295.3 394.2,295.3 395.2" style="fill:none;stroke:#ff0000;stroke-width:2"/>
<polyline points="304.6 378.5,304.6 379.8,304.6 386.3,304.6 393.2,304.6 393.1" style="fill:none;stroke:#ff0000;stroke-width:2"/>
<polyline points="283.9 375.8,287.3 377.8,289.3 379.2,290.6 379.8,290.9 380.0,291.5 380.4,292.4 381.2,293.2 381.9,294.2 382.9,295.3 383.7,296.5 384.7,297.7 385.6,299.0 386.1,300.3 386.7,301.6 387.1,302.9 387.3,304.2 387.5,306.9 387.0,308.6 386.3,310.2 385.6,311.8 385.0,313.0 384.0,314.3 383.3,315.6 382.8,316.9 382.2,318.0 381.6,319.2 381.2,320.1 381.0,321.0 380.5,321.5 380.3,322.1 380.1,322.5 380.0" style="fill:none;stroke:#ff0000;stroke-width:2"/>
<polyline points="288.6 408.5,291.9 407.8,293.6 407.3,294.8 406.9,295.9 406.8,298.0 406.4,300.6 406.1,301.8 406.0,305.1 405.6,307.9 405.4,308.8 405.3,309.7 405.3,310.5 405.2,310.9 405.2" style="fill:none;stroke:#ff0000;stroke-width:2"/>
<polyline points="299.3 421.8,297.9 421.8,300.6 420.5,301.9 420.5,302.2 420.5,302.9 420.5,303.2 420.5,303.7 420.8,304.0 421.4,304.2 422.3,304.3 423.6,304.4 424.9,303.9 427.0,303.7 428.1,303.3 429.5,302.8 430.8,302.2 431.8,301.6 432.8,301.3 433.6,300.8 434.1,300.5 434.7,300.3 435.1,300.2 435.6,300.7 435.9,301.4 436.1,302.3 436.2,303.1 436.3,304.2 436.3,305.0 436.4,305.8 436.4,306.8 436.4,310.5 436.5,315.3 436.2,316.2 435.5" style="fill:none;stroke:#ff0000;stroke-width:2"/>
<polyline points="373.9 381.2,373.9 383.2,374.6 386.5,374.5 387.1,374.5 388.1,374.8 389.2,374.9 390.4,375.3 391.6,375.8 392.6,376.0 393.5,376.5 394.3,376.7 395.1,376.9 395.6,377.0 396.1,377.1 396.5" style="fill:none;stroke:#ff0000;stroke-width:2"/>
<polyline points="387.9 379.8,387.9 385.2,387.9 392.0,387.9 395.2" style="fill:none;stroke:#ff0000;stroke-width:2"/>
<polyline points="369.2 378.5,377.4 378.5,381.2 379.2,381.8 379.3,382.9 379.8,384.0 380.0,385.2 380.5,386.7 380.7,389.3 380.9,390.5 381.0,394.9 380.8,396.3 380.4,398.4 379.7,400.1 379.0,401.7 378.1,403.2 377.3,404.1 376.5,405.0 375.8,405.8 374.8" style="fill:none;stroke:#ff0000;stroke-width:2"/>
<polyline points="438.6 385.8,437.9 384.5,439.2 383.2,441.2 381.5,441.9 381.1,442.6 380.9,443.3 380.8,443.7 380.7,444.3 380.6,444.9 380.6,445.2 380.8,445.4 381.5,445.6 382.1,445.7 383.0,445.5 383.8,445.1 384.8,444.9 385.6,444.2 386.4,443.6 387.1,443.0 387.9,442.4 388.3,441.7 388.9,441.1 389.2,440.4 389.4,440.0 389.5,439.5 389.6,439.2 389.4,440.1 389.3,440.7 389.3,441.7 389.2,443.0 389.5,443.7 389.6,444.5 389.7,445.2 390.0,445.7 390.4,446.0 391.2,446.2 391.9,446.3 392.6,446.4 393.6,446.4 394.3,446.5 395.1,445.9 396.1,445.4 396.9,444.0 398.3,443.3 399.0,442.3 399.8,441.5 400.5,440.4 401.2,439.5 401.6,438.7 402.2,438.2 402.5,437.9 402.7,438.2 402.3" style="fill:none;stroke:#ff0000;stroke-width:2"/>
<polyline points="431.9 417.8,433.9 417.1,435.2 416.5,437.2 415.8,437.4 415.6,438.1 415.5,439.0 415.1,439.8 414.9,440.8 414.5,441.9 414.3,443.1 413.8,444.4 413.3,445.6 412.8,447.2 412.2,448.4 411.8,449.1 411.6,449.8 411.5,450.3 411.4,450.9 411.3,451.5 411.2,452.1 411.2,453.0 411.2,453.5 411.2,453.9 411.2,454.4 411.2" style="fill:none;stroke:#ff0000;stroke-width:2"/>
<polyline points="435.9 433.1,437.2 430.5,439.2 429.1,439.9 427.8,440.3 428.0,440.9 427.9,441.5 428.2,441.8 428.5,442.1 429.3,442.2 430.2,442.3 431.3,442.4 432.7,442.5 434.1,442.5 436.0,442.2 437.5,441.8 439.1,441.6 440.2,441.5 441.0,441.1 441.7,440.9 442.2,440.8 442.5,440.7 443.0,441.2 443.3,442.0 443.4,442.7 443.6,443.6 443.6,444.7 443.7,445.9 443.7,447.1 443.7,449.6 443.5,451.0 443.1,452.0 442.9,452.9 442.5,453.7 441.7,454.2 440.5,454.5 438.4" style="fill:none;stroke:#ff0000;stroke-width:2"/>
<polyline points="463.9 397.8,464.5 399.1,464.5 400.5,465.2 401.8,465.1 402.4,465.2 403.5,465.5 404.6,465.6 406.0,466.0 407.4,466.4 408.4,466.7 409.4,467.1 410.0" style="fill:none;stroke:#ff0000;stroke-width:2"/>
<polyline points="463.9 397.8,463.9 399.3,463.1 398.6" style="fill:none;stroke:#ff0000;stroke-width:2"/>
<polyline points="471.9 397.1,471.9 398.5,472.5 400.5,472.5 402.5,472.8 402.7,473.2 403.9,473.4 405.1,473.6 406.3,473.7 407.3,474.0 408.2,474.2 408.7" style="fill:none;stroke:#ff0000;stroke-width:2"/>
<polyline points="459.2 392.5,459.9 393.8,461.2 393.8,461.9 395.2,463.2 395.2,464.4 395.7,466.7 396.5,467.6 396.7,468.7 396.8,469.6 396.9,470.1 397.0,471.0 397.1,471.8 397.1,472.5 397.1,473.8 396.3,475.0 395.4,476.3 394.0,477.6 392.5,478.6 391.1,479.8 389.9,480.8 388.7,481.3 388.0,482.0 387.5,482.4 387.1,482.7 386.9" style="fill:none;stroke:#ff0000;stroke-width:2"/>
<polyline points="526.5 385.2,529.9 379.2,531.2 378.5,532.9 377.9,533.2 377.9,533.7 377.9,534.0 378.4,534.2 378.9,534.3 380.1,534.1 381.5,533.7 383.1,533.3 384.8,532.5 386.6,531.8 388.5,530.8 390.4,530.0 392.1,528.5 395.4,528.2 396.7,527.6 398.1,527.2 399.1,527.0 399.8,527.0 400.8,527.4 401.1,528.1 401.3,528.7 401.5,529.7 401.6,530.4 401.7,531.2 401.7,531.6 401.7,532.2 401.8,532.8 401.8,533.7 401.2,535.0 400.4" style="fill:none;stroke:#ff0000;stroke-width:2"/>
<polyline points="551.2 382.5,551.2 387.2,551.2 397.6,551.9 402.5" style="fill:none;stroke:#ff0000;stroke-width:2"/>
<polyline points="558.5 385.2,559.2 392.5,559.9 395.2,560.7 398.2,561.1 399.6,561.4 400.9,561.8 401.9,562.0 402.8,562.2 403.4" style="fill:none;stroke:#ff0000;stroke-width:2"/>
<polyline points="540.5 386.5,553.6 386.5,561.2 386.5,567.5 386.2,569.0 385.8,570.1 384.8" style="fill:none;stroke:#ff0000;stroke-width:2"/>
<polyline points="222.6 429.8,221.3 429.8,222.6 429.8,224.3 429.5,225.2 429.4,226.6 429.3,227.2 429.2,229.0 429.2,229.7 429.2,230.2 429.2,230.6 429.1" style="fill:none;stroke:#ff0000;stroke-width:2"/>
<polyline points="221.3 497.8,228.4 497.8,231.3 498.4,232.6 498.4,233.2 498.4,234.0 498.4,237.3 498.7,237.6 498.8,238.2 498.9,238.6 499.0" style="fill:none;stroke:#ff0000;stroke-width:2"/>
<polyline points="230.6 347.2,230.6 345.2,230.9 340.3,231.0 339.6,231.1 339.1,231.4 338.4,231.6 337.4,231.7 336.6,232.1 335.9,232.5 334.9,232.8 333.8,233.2 332.3,233.7 330.9,234.0 329.9,234.5 328.6,235.0 327.4,235.3 326.1,235.8 325.1,236.1 323.9,236.5 323.0,236.8 322.1,236.9 321.3,237.3 320.5,237.5 319.8,237.9 318.6,238.2 316.5,238.6 314.9,239.1 313.3,240.2 310.0,240.5 308.8,241.0 307.5,241.3 306.5,241.8 305.6,242.1 304.7,242.2 303.9,242.4 302.9,242.7 302.1,242.9 301.0,243.0 299.9,243.1 298.7,243.4 297.4,243.6 295.8,244.0 294.4,244.7 291.3,245.1 290.1,245.7 288.5,246.0 287.1,246.5 285.7,246.7 284.6,247.2 283.6,247.4 282.8,247.9 281.7,248.1 280.6,248.6 279.3,248.8 278.1,249.2 276.5,249.7 275.1,250.3 273.4,250.9 271.9,251.2 270.5,251.7 269.1,252.3 268.0,252.6 267.0,253.1 266.1,253.4 265.3,253.8 264.6,254.1 263.8,254.5 263.1,254.8 262.2,255.2 261.4,256.0 259.5,256.7 258.0,257.4 256.2,258.1 254.7,258.7 253.2,259.1 252.1,259.4 251.1,259.9 250.2,260.1 249.4,260.3 248.9,260.4 248.3,260.4 247.6,260.8 247.0,260.9 246.4,261.0 245.7,261.4 245.1,261.8 244.1,262.1 243.1,262.5 242.2,263.1 241.4,263.6 240.3,264.2 239.5,264.6 238.7,265.1 237.6,265.6 236.8,265.9 235.7,266.4 234.8,267.0 233.8,267.3 232.9,267.8 231.8,268.3 230.3,268.9 229.0,269.5 227.6,270.2 226.3,271.4 223.9,271.7 223.2,272.3 222.5,272.6 221.8,273.1 221.1,273.4 220.4,273.8 220.0,274.1 219.2,274.5 218.5,275.0 217.8,275.6 216.8,276.2 216.0,276.6 215.3,277.1 214.5,277.6 213.8,277.9 213.1,278.4 212.7,278.7 212.2,278.9 211.9,279.3 211.4,279.5 211.1,279.6 210.7,280.0 210.4,280.5 210.0,280.7 209.4,281.2 209.2,281.7 208.7,282.0 208.4,282.5 208.3,282.7 207.9,283.2 207.7,283.4 207.2,283.9 207.0,284.4 206.6,284.9 206.4,285.5 205.9,286.2 205.4,286.8 204.9,287.4 204.6,288.1 204.1,288.8 203.8,289.4 203.6,290.1 203.5,291.0 203.4,291.8 203.3,292.6 203.3,293.0 203.0,293.6 202.9,294.2 202.8,294.8 202.7,295.7 202.7,296.5 202.6,297.3 202.6,298.3 202.6,302.8 202.6,307.4 202.6,307.9 202.9,309.2 203.0,310.4 203.3,311.7 203.5,312.7 203.9,314.2 205.0,315.2 205.8,316.2 206.5,317.0 207.0,317.8 207.3,318.3 207.8,318.9 208.0,319.5 208.5,320.1 208.7,320.5 209.2,321.0 209.4,321.3 209.9,321.8 210.1,322.3 210.5,322.9 211.0,323.5 211.6,324.1 212.2,324.8 213.0,325.1 213.3,325.4 213.8,325.8 214.0,326.1 214.5,326.5 215.0,327.0 215.6,327.6 216.5,328.2 217.2,328.8 217.9,329.2 218.6,329.7 219.3,330.0 220.0,330.5 220.7,330.7 221.4,331.2 221.8,331.4 222.3,331.9 222.9,332.4 223.5,332.9 224.4,333.5 224.9,334.2 225.5,334.5 226.1,335.0 226.5,335.3 227.0,335.8 227.6,336.0 228.2,336.5 228.8,337.0 229.7,337.6 230.5,338.5 232.1,339.5 233.4,340.3 234.5,341.1 235.7,341.6 237.0,342.2 238.0,342.5 238.9,343.1 239.7,343.6 240.8,343.9 241.6,345.0 244.0,345.5 245.0,346.1 246.0,346.5 247.2,347.0 248.1,347.3 249.3,347.8 250.2,348.3 251.0,348.6 252.1,349.1 252.9,349.4 253.7,349.8 255.1,350.3 256.0,350.9 257.2,352.1 260.0,353.4 262.6,354.0 263.8,355.1 266.4,356.2 268.6,356.4 269.6,357.2 271.5,357.6 272.5,357.9 274.0,358.4 275.4,359.0 276.8,359.3 278.1,359.8 279.5,360.3 281.1,360.6 282.8,361.1 284.1,361.4 285.2,361.5 286.1,361.7 287.3,362.0 288.2,362.2 289.3,362.3 290.5,362.7 292.0,362.9 293.6,363.3 295.4,363.5 297.0,363.6 298.2,364.0 299.5,364.2 300.6,364.3 301.2,364.4 301.9,364.5 302.6,364.5 303.3,364.5 304.0,364.8 304.7,364.9 305.6,365.3 307.2,365.5 308.6,365.9 310.0,366.1 312.2,366.3 313.7,366.7 315.2,366.8 316.3,367.0 317.3,367.1 318.5,367.1 319.4,367.4 320.6,367.6 321.8,367.7 322.7,367.8 324.2,368.1 326.3,368.5 328.0,368.8 329.6,368.9 331.1,369.3 332.6,369.5 333.7,369.6 335.0,370.0 336.0,370.2 336.9,370.3 337.7,370.7 338.5,370.9 339.2,371.0 339.9,371.1 340.6,371.1 341.3,371.2 342.0,371.2 342.6,371.5 343.3,371.6 344.0,371.7 344.6,372.1 345.3,372.2 346.0,372.3 346.7,372.4 347.0,372.7 347.6,372.9 348.2,373.0 348.5,373.1 349.0,373.4 349.3,373.6 349.7,373.7 350.3,374.0 350.6,374.2 351.0,374.3 351.6,374.4 352.2,374.5 352.5,373.7 351.3" style="fill:none;stroke:#ffff00;stroke-width:2"/>
<polyline points="381.2 343.8,381.9 345.2,383.1 348.2,383.5 349.1,383.9 349.8,384.1 350.5,384.5 351.5,384.8 352.1,385.2 352.7,385.7 353.4,386.0 354.0,386.5 354.7,386.7 355.3,387.4 357.5,387.8 357.8,388.0 358.6,388.2 359.3,388.6 359.7,388.8 360.2,389.0 361.1,389.3 361.8,389.5 362.8,389.9 363.6,390.1 364.4,390.6 365.2,390.8 365.9,391.2 366.6,391.4 367.3,391.9 367.9,392.1 368.6,392.5 369.3,392.8 370.0,393.2 370.6,393.7 371.3,394.0 372.0,394.5 372.9,394.9 374.3,395.0 375.0,395.3 375.8,395.5 376.5,395.9 377.5,396.1 378.3,396.6 379.4,396.8 380.2,397.2 381.0,397.4 381.8,397.6 382.5,397.7 383.2,397.8 383.9,397.8 384.6,398.1 385.0,398.3 385.6,398.4 386.1,398.7 386.5,398.9 387.0,399.0 387.5,399.1 388.1,399.1 388.7,399.2 389.4,399.5 389.7,399.6 390.3,399.7 390.8,399.8 391.7,400.1 392.5,400.2 392.9,400.3 393.5,400.7 394.1,400.9 394.7,401.3 395.4,401.5 396.3,401.6 397.1,402.0 397.8,402.2 398.5,402.6 399.8,402.8 400.7,402.9 401.6,403.0 402.1,403.4 402.7,403.5 403.4,403.7 404.0,404.0 404.7,404.2 405.3,404.3 406.0,404.7 406.6,404.9 407.6,405.3 408.4,405.5 409.4,405.6 410.2,406.0 411.0,406.2 412.1,406.3 412.9,406.7 413.7,406.8 414.5,407.3 415.5,407.5 416.3,407.9 417.3,408.4 418.5,408.7 419.4,408.8 420.3,409.3 420.8,409.5 421.4,409.6 422.0,410.0 422.7,410.2 423.3,410.6 423.7,410.8 424.2,410.9 424.8,411.3 425.4,411.5 426.0,411.6 426.7,411.7 427.3,412.1 427.7,412.2 428.2,412.3 428.8,412.7 429.4,412.9 430.0,413.3 430.7,413.5 431.3,413.6 432.0,414.0 432.9,414.2 433.7,414.3 434.4,414.4 434.9,414.7 435.5,414.9 435.8,415.0 436.3,415.4 436.8,415.5 437.4,415.6 438.0,416.0 439.2,416.5 440.4,416.7 441.4,416.9 442.2,417.3 443.0,417.5 443.5,417.9 444.1,418.1 444.7,418.3 445.3,418.6 446.0,419.1 446.9,419.4 447.7,419.5 448.4,419.9 449.2,420.1 449.9,420.6 450.6,420.8 451.2,420.9 451.6,421.0 452.2,421.4 452.5,421.5 453.0,421.9 453.5,422.1 454.1,422.3 454.7,422.4 455.3,422.7 455.7,422.9 456.2,423.0 456.8,423.3 457.1,423.5 457.6,423.6 458.2,424.0 458.8,424.2 459.1,424.3 459.6,424.7 459.9,424.8 460.4,425.0 460.9,425.3 461.5,425.5 462.1,425.6 462.4,425.7 462.9,426.1 463.2,426.2 463.7,426.3 464.2,426.7 464.8,426.9 465.4,427.3 466.0,427.5 466.7,427.9 467.3,428.4 468.0,428.7 468.3,428.8 468.9,429.0 469.4,429.3 469.8,429.5 470.3,429.9 470.5,430.1 471.0,430.3 471.5,430.6 471.8,430.8 472.3,431.2 472.6,431.4 473.0,431.9 473.6,432.4 474.1,432.6 474.7,433.1 475.3,433.6 475.7,433.9 476.2,434.1 476.5,434.6 476.7,434.8 477.1,435.2 477.6,435.4 477.9,435.9 478.1,436.1 478.5,436.5 478.7,436.7 479.1,436.9 479.6,437.3 479.9,437.5 480.3,437.6 480.9,438.0 481.2,438.2 481.6,438.6 482.2,438.8 482.8,439.2 483.4,439.4 484.0,439.6 484.6,440.0 485.3,440.1 485.7,440.3 486.2,440.7 486.5,440.8 487.0,441.2 487.5,441.4 488.1,441.9 488.7,442.4 489.6,442.9 490.4,443.2 491.1,443.7 491.5,444.0 492.1,444.5 492.4,444.7 492.9,445.2 493.2,445.7 493.7,446.2 493.9,446.8 494.1,447.5 494.5,448.1 494.7,448.7 494.8,449.7 494.9,450.4 495.0,451.2 495.0,451.9 495.0,452.6 495.1,454.1 495.1,454.6 495.1,457.6 494.8,458.1 494.7,459.0 494.6,459.8 494.3,460.5 493.8,461.5 493.3,462.4 493.0,463.1 492.6,463.9 492.0,464.6 491.7,465.0 491.2,465.6 491.0,466.2 490.5,466.8 490.3,467.4 490.1,467.8 489.7,468.3 489.5,468.6 489.1,469.1 488.6,469.3 488.1,469.8 487.8,470.3 487.3,470.6 486.7,470.8 486.1,471.2 485.5,471.7 485.2,472.3 484.6,472.6 484.1,473.1 483.5,473.9 482.6,474.6 482.1,475.0 481.5,475.6 480.9,476.8 479.6,477.0 479.0,477.6 478.1,478.2 477.3,478.8 476.5,479.2 475.5,480.0 474.1,480.6 472.8,481.3 471.7,482.3 470.5,483.1 469.3,483.8 468.0,484.6 466.7,485.3 465.4,486.0 464.4,486.7 463.2,487.0 462.2,487.9 460.8,488.6 459.5,490.5 455.7,491.1 454.7,493.2 450.5,495.1 446.6,496.8 442.9,497.2 442.0,497.7 440.7,498.0 439.4,498.4 437.8,498.7 436.1,498.9 434.3,499.3 432.7,499.4 430.9,499.9 429.1,500.4 427.4,500.9 425.9,501.2 424.4,501.7 423.3,502.0 422.0,502.2 421.0,502.6 419.8,502.8 418.9,503.2 417.8,503.4 416.6,503.8 415.0,504.1 413.7,504.5 412.0,504.7 410.5,505.2 408.8,505.7 407.3,506.2 405.8,506.5 404.6,507.0 403.7,507.3 402.8,507.5 402.0,507.6 401.2,508.0 400.5,508.2 399.8,508.6 398.8,508.8 398.0,508.9 396.9,509.3 395.8,509.5 394.9,509.9 393.7,510.4 392.6,510.9 391.3,511.5 390.1,511.8 388.8,512.4 387.7,512.9 386.6,513.2 385.0,513.7 383.7,514.3 382.3,515.9 378.4,516.4 377.4,516.9 375.8,517.5 375.0,518.8 373.3,519.0 372.7,519.6 371.9,519.9 371.1,520.4 370.4,520.9 369.2,521.5 368.3,522.1 367.4,522.8 366.6,523.1 366.1,523.6 365.5,524.2 364.9,524.8 364.0,525.4 363.2,526.1 362.2,526.7 361.1,527.4 360.2,527.7 359.4,528.3 358.6,528.6 357.8,528.8 357.1,529.2 356.1,529.4 355.1,529.8 354.2,530.3 353.3,530.6 352.8,530.8 352.2,531.2 351.9,531.4 351.4,531.6 350.8,531.9 350.2,532.4 349.6,532.7 349.0,533.1 348.3,533.4 347.4,533.8 346.9,534.0 346.3,534.2 345.9,534.6 345.7,535.1 344.9,535.6 344.3,535.9 343.9,536.4 343.4,536.6 342.8,537.1 342.2,537.4 341.6,537.8 341.0,538.0 340.3,538.5 339.7,539.0 338.7,539.3 338.0,539.5 337.2,539.9 336.5,540.1 335.8,540.2 335.1,540.3 334.4,540.4 333.7,540.7 333.0,540.9 331.8,541.3 330.9,541.4 330.1,541.6 329.0,541.7 328.1,542.0 327.3,542.2 326.3,542.3 325.4,542.4 324.3,542.7 323.2,542.9 322.0,543.2 320.7,543.4 319.4,543.6 318.4,544.0 317.2,544.1 316.3,544.3 315.4,544.4 314.4,544.7 313.2,544.8 312.0,545.2 310.7,545.4 309.2,545.9 307.8,546.1 306.4,546.5 305.0,546.7 303.1,547.2 301.8,547.4 300.3,547.8 299.0,548.0 297.6,548.5 296.3,548.7 294.9,549.2 293.3,549.7 291.6,549.9 289.5,550.4 287.5,551.5 283.0,551.8 281.3,552.3 279.1,552.9 277.3,553.5 275.6,553.8 274.3,554.3 272.9,555.2 271.9,555.9 270.4,556.9 269.0,558.0 267.4,559.4 265.6,560.8 263.8,561.8 262.2,562.8 260.9,563.6 259.9,564.4 258.9,564.9 258.1,565.5 257.3,565.8 256.6,566.3 255.8,566.6 255.1,566.8 254.7,566.9 254.2,567.0 253.6,567.1 252.7" style="fill:none;stroke:#ffff00;stroke-width:2"/>
<polyline points="228.6 350.5,227.9 351.8,226.7 354.8,226.4 355.7,226.0 356.8,225.5 357.9,224.9 359.4,224.3 360.7,223.4 362.4,222.7 363.8,221.9 365.5,221.2 367.1,219.8 370.2,218.5 373.1,217.9 374.6,216.9 376.2,216.1 378.0,215.1 379.9,213.9 381.8,212.4 383.7,211.1 385.4,209.7 387.0,208.6 388.5,207.7 389.6,206.6 391.2,205.6 392.3,204.8 393.3,204.0 394.5,203.3 395.7,202.3 396.7,201.5 397.8,200.7 399.0,199.9 400.3,199.2 401.6,198.5 402.9,197.8 404.2,196.5 406.8,195.6 408.2,194.8 409.7,194.0 411.5,193.0 413.6,192.2 415.6,191.1 417.6,190.0 419.9,187.5 424.7,186.1 427.8,184.6 430.9,183.5 433.8,182.2 436.7,181.2 439.5,180.3 442.2,179.2 444.9" style="fill:none;stroke:#ffff00;stroke-width:2"/>
<polyline points="573.9 229.9,575.8 229.2,577.2 229.2,577.2 230.6,577.2 231.2,577.5 232.2,578.6 234.9,579.2 236.0,580.2 237.4,581.6 238.8,583.2 239.6,584.9 240.4,587.0 240.9,589.2 241.2,591.6 241.4,593.8 241.3,596.0 241.0,598.1 240.3,599.6 239.4,601.1 238.4,602.0 237.5,602.6 236.7,603.0 235.6,602.7 234.8,601.8 233.7,600.6 232.9,599.1 231.8,597.1 230.9,594.9 230.1,593.2 229.3,591.2 228.8,589.6 228.2,588.3 227.9,587.2 227.4,586.5 226.9,586.1 226.5,585.8 226.0,585.6 225.5,585.5 224.9,585.6 224.6,586.3 224.4,586.8 224.2,587.7 224.1,588.8 223.8,589.6 223.6,590.7 223.5,591.8 223.1,593.0 222.9,594.0 222.8,595.2 222.7,595.8 222.7,596.6 222.6,597.5 222.6" style="fill:none;stroke:#ffff00;stroke-width:2"/>
<polyline points="613.8 227.2,613.2 233.2,613.2 234.6,615.2 235.9,615.1 236.2,615.7 236.9,615.9 237.5,616.1 237.8,616.3 238.3" style="fill:none;stroke:#ffff00;stroke-width:2"/>
<polyline points="624.5 219.9,626.5 220.6,627.8 221.9,629.2 223.9,629.2 224.4,629.7 225.8,630.3 227.3,630.6 229.0,631.0 230.8,631.6 232.6,632.2 234.0,632.5 235.4,632.7 236.2,632.9 236.8,633.0 236.3,632.8 235.3,632.7 234.3,632.4 233.2,632.2 232.3,632.1 231.1,632.0 230.0,632.8 228.7,633.4 227.7,634.3 227.1,635.1 226.4,636.1 226.0,636.9 225.8,638.0 225.6,638.9 225.5,640.5 226.0,641.7 226.4,643.2 227.5,644.1 228.1,644.9 229.0,645.4 229.8,646.1 231.1,646.7 232.3,647.4 233.9,648.0 235.6,648.9 237.4,649.7 239.3,650.5 240.9,651.8 241.6" style="fill:none;stroke:#ffff00;stroke-width:2"/>
<polyline points="164.6 492.4,167.3 491.8,169.3 492.4,171.3 492.4,172.1 492.4,173.6 492.4,178.4 492.4,183.4 492.4,185.1 491.9" style="fill:none;stroke:#ff0000;stroke-width:2"/>
<polyline points="197.3 476.4,199.3 479.1,199.9 481.8,201.3 485.1,203.3 490.8,204.0 493.0,204.7 495.4,205.1 497.4,205.4 498.9,205.3 499.8" style="fill:none;stroke:#ff0000;stroke-width:2"/>
<polyline points="227.5 347.6,228.1 348.7,228.9 349.3,230.1 349.3,230.5 349.3,231.2 349.3,231.9 349.1,232.8 349.0,233.6 348.8,234.5 348.7,235.3 348.5,236.1 348.2,237.6 347.7,238.1 347.6,238.8 347.4,239.4 347.1,240.1 346.8,240.5 346.6,240.9 346.3,241.3 346.1,241.6 345.7,242.0 345.2,242.4 344.7,242.9 344.3,243.2 343.9,243.7 343.4,244.2 342.8,244.9 342.2,245.7 341.6,246.4 340.9,247.1 340.2,247.8 339.6,248.4 338.9,249.2 338.3,249.8 337.7,250.9 336.5,251.4 336.1,252.8 334.8,253.4 334.4,254.0 333.7,254.7 333.1,255.9 331.8,256.3 331.2,258.0 328.8,258.7 327.8,259.5 326.8,260.1 325.8,260.5 324.9,261.0 323.9,261.4 322.9,261.7 321.8,262.0 320.7,262.2 319.6,262.3 318.5,262.5 317.5,262.6 316.5,262.7 315.6,262.8 314.7,262.8 313.8,262.8 312.3,262.8 311.4,263.0 308.6,263.0 307.7,263.2 306.5,263.6 303.7,263.7 302.9,263.9 301.9,264.0 300.9,264.2 300.0,264.3 299.3,264.5 298.4,265.0 296.6,265.2 295.7,266.1 292.7,266.4 292.0,266.7 290.9,266.9 290.0,267.2 289.0,267.5 288.3,267.6 287.5,267.8 286.9,268.0 286.3,268.2 285.6,268.4 285.0,268.5 284.5,268.7 283.8,268.8 283.1,268.9 282.2,269.1 281.3,269.3 280.4,269.4 279.7,269.6 278.9,269.8 278.2,269.9 277.7,270.1 277.1,270.3 276.5,270.4 275.9,270.7 275.4,270.9 274.5,271.0 273.6,271.3 272.7,271.6 270.6,271.7 269.7,271.9 268.5,272.0 267.5,272.2 266.4,272.3 265.5,272.4 264.6,272.7 263.5,272.9 262.6,273.1 261.6,273.4 260.6,273.8 259.4,274.2 258.3,275.1 255.8,275.4 254.7,275.9 253.6,276.2 252.5,276.3 251.2,276.5 250.1,276.5 249.0,276.6 247.8,276.6 246.8,276.8 245.6,276.8 244.5,277.0 243.5,277.2 242.4,277.4 241.4,277.7 240.5,277.9 239.2,278.1 238.3,278.3 237.2,278.5 236.3,279.2 234.2,279.5 233.1,279.9 231.9,280.3 230.7,280.7 229.7,281.1 228.6,281.6 227.1,282.1 225.9,282.5 224.9,282.8 223.8,283.2 222.8,283.6 221.9,284.0 221.1,284.4 220.2,284.8 219.4,285.2 218.5,285.7 217.8,286.2 217.0,287.3 215.5,288.3 214.1,288.7 213.4,289.2 212.7,289.7 212.1,290.1 211.5,290.4 211.1,290.7 210.7,291.1 210.3,291.4 210.0,291.7 209.7,292.0 209.2,292.3 208.9,292.8 208.3,293.2 208.0,293.6 207.7,293.9 207.5,294.2 207.3,294.5 207.0,294.8 206.7,295.5 206.3,296.0 206.1,296.5 205.9,297.0 205.6,297.4 205.3,297.9 205.2,298.4 205.0,298.8 204.7,299.3 204.6,299.7 204.5,300.1 204.4,300.5 204.3,300.9 204.2,301.4 204.1,301.7 204.1,302.2 204.1,302.6 204.0,303.0 204.0,303.9 204.0,304.6 204.0,305.7 204.1,306.0 204.3,306.5 204.4,306.8 204.6,307.2 204.8,307.6 204.9,308.0 205.1,308.3 205.2,308.6 205.4,309.1 205.6,309.5 206.0,309.9 206.4,310.4 206.9,310.9 207.2,311.3 207.7,311.8 208.1,312.2 208.6,312.6 209.0,313.0 209.4,313.5 209.9,314.7 211.3,315.8 212.6,316.3 213.3,317.4 214.8,317.8 215.5,318.8 217.1,320.1 218.9,321.2 220.7,321.7 221.4,322.3 222.4,322.7 223.3,323.1 224.3,323.9 226.2,324.1 227.0,324.5 228.0,324.9 229.4,325.1 230.5,325.4 231.4,325.6 232.3,325.8 233.1,325.9 233.8,326.1 234.6,326.2 235.3,326.4 236.0,326.6 236.8,326.8 237.6,327.0 238.4,327.1 239.3,327.3 240.1,327.4 241.1,327.6 242.3,327.7 243.4,327.7 244.3,327.9 245.3,328.1 246.2,328.2 247.1,328.3 247.9,328.4 248.7,328.5 249.5,328.6 250.2,328.7 251.0,328.9 252.1,329.1 253.0,329.2 253.9,329.3 254.7,329.4 255.5,329.6 256.3,329.7 257.0,329.8 257.8,329.9 258.6,330.1 259.4,330.2 260.2,330.3 261.0,330.4 261.7,330.5 262.5,330.7 263.2,330.8 264.0,331.0 264.8,331.1 265.6,331.2 266.3,331.3 267.1,331.5 267.9,331.6 268.6,331.8 269.3,331.9 270.1,332.0 270.8,332.0 271.6,332.2 272.4,332.2 273.1,332.3 273.8,332.4 274.5,332.5 275.2,332.6 275.8,332.6 276.5,332.6 277.2,332.6 277.8,332.6 278.5,332.7 281.4,332.8 281.9,332.8 282.8,332.9 284.3,333.0 284.9,333.1 286.1,333.3 287.0,333.3 287.9,333.5 289.0,333.6 289.9,333.7 290.8,333.8 291.7,334.0 292.6,334.1 293.5,334.3 294.2,334.6 295.0,334.7 295.7,335.1 296.8,335.8 298.5,336.1 299.3,336.5 300.2,336.9 301.1,337.3 301.9,337.7 302.8,338.0 303.7,338.4 304.6,338.8 305.5,339.4 306.8,339.8 307.9,340.2 308.8,340.6 309.8,341.0 310.5,341.5 311.4,342.0 312.1,342.4 312.8,342.9 313.7,343.2 314.6,343.7 315.5,344.2 316.5,344.7 317.4,345.3 318.4,345.8 319.3,346.4 320.2,346.9 321.1,347.5 321.9,348.1 322.7,348.6 323.4,349.2 324.0,349.8 324.7,350.4 325.4,351.2 326.0,351.8 326.8,352.6 327.4,353.2 328.3,354.0 329.1,354.8 329.9,355.4 330.6,356.2 331.3,356.9 332.1,357.6 332.8,358.4 333.4,359.2 334.0,360.0 334.7,360.9 335.4,361.7 336.0,362.6 336.6,363.8 337.3,364.7 337.8,365.6 338.4,366.3 338.8,367.0 339.2,367.7 339.6,368.2 339.9,368.7 340.1,369.2 340.2,369.5 340.3,370.0 340.5,370.4 340.6,370.8 340.8,371.2 341.0,371.6 341.1,371.9 341.3,372.3 341.4,372.7 341.5,373.0 341.7,373.5 341.7,373.8 341.8,374.2 342.0,374.5 342.2,374.9 342.4,375.3 342.5,375.6 342.7,375.9 342.9,376.3 343.2,376.8 343.3,377.2 343.5,377.7 343.7,378.2 343.7,378.7 343.8,379.2 343.8,379.8 343.8,380.3 343.9,380.9 343.9,382.0 343.8,383.1 343.4,383.6 343.2,384.2 342.9,385.0 342.4,385.7 341.9,386.3 341.5,386.9 341.2,387.4 340.8,388.0 340.5,388.4 340.1,388.9 339.7,389.3 339.4,390.0 338.7,390.9 337.8,391.6 337.1,392.4 336.4,393.0 335.6,393.7 334.9,394.3 334.4,394.8 333.9,395.2 333.3,395.7 332.7,396.1 332.2,396.6 331.6,397.2 330.8,397.8 330.0,398.2 329.3,398.8 328.6,399.2 327.8,399.7 327.0,400.2 326.3,400.6 325.5,401.0 324.8,401.3 324.1,401.7 323.6,402.1 323.0,402.6 322.5,402.9 321.8,404.0 320.0,404.3 319.3,404.6 318.4,405.0 317.4,405.3 316.4,406.3 313.4,406.5 312.7,406.8 311.6,407.2 309.7,407.4 308.9,407.7 307.7,408.2 305.2,408.6 302.7,408.8 301.8,409.1 300.7,409.2 299.7,409.3 298.8,409.5 298.1,409.7 297.3,409.9 296.6,410.1 295.7,410.3 294.8,410.5 293.9,411.1 291.4,411.3 290.5,411.6 289.3,411.9 288.5,412.2 287.4,412.3 286.5,412.6 285.6,412.8 284.7,413.1 283.7,413.2 282.7,413.4 281.5,413.5 280.4,413.7 279.3,414.0 278.4,414.2 277.5,414.5 276.3,414.6 275.5,414.8 274.6,415.1 273.8,415.3 272.9,415.6 272.0,415.9 271.0,416.1 269.8,416.4 268.7,416.7 267.5,417.1 265.0,417.3 264.0,417.5 262.8,417.6 261.8,417.7 261.0,417.8 260.2,418.0 259.5,418.1 259.0,418.2 258.5,418.3 258.1,418.4 257.7,418.6 257.2,418.8 256.3,419.0 255.6,419.3 254.8,419.8 253.1,419.9 252.3,420.2 251.4,420.3 250.5,420.5 249.8,420.6 249.0,420.8 248.4,420.9 247.4,421.1 246.7,421.3 246.0,422.5 242.5,422.7 242.0,422.9 241.0,423.2 240.2,423.5 239.4,423.8 238.8,423.9 238.2,424.1 237.7,424.3 237.2,424.5 236.7,424.7 236.1,424.9 235.5,425.2 235.0,425.5 234.3,425.6 233.7,425.9 233.2,426.0 232.6,426.2 232.2,426.3 231.8,426.4 231.5,426.4 231.0,426.6 230.6,426.6 230.2,426.8 229.7,427.0 228.8,427.2 228.2,427.5 227.5,427.7 226.9,427.9 226.3,428.1 225.8,428.4 225.4,428.5 225.0,428.6 224.6,428.8 224.2,429.0 223.9,429.1 223.4,429.3 223.0,429.6 222.6,429.9 222.1,430.2 221.6,430.5 221.2,430.7 220.7,430.9 220.2,431.2 219.8,431.4 219.3,431.7 218.9,432.0 218.5,432.2 218.2,432.5 217.9,432.8 217.4,433.2 217.0,434.0 216.2,434.6 215.6,435.8 214.4,436.0 214.3,436.3 213.9,436.7 213.7,437.1 213.7,437.6 213.7,438.1 213.7,438.7 213.6,440.2 213.4,440.8 212.9,442.5 211.7,443.3 211.0,444.2 210.3,444.9 209.7,445.5 209.1,446.0 208.6,446.3 208.2,446.6 207.9,447.0 207.7,447.3 207.6,447.7 207.4,448.1 207.3,448.5 207.3,448.9 207.2,449.4 207.2,449.8 207.0,450.2 207.0,450.6 206.9,451.0 206.9,451.4 206.9,452.3 206.9,452.6 206.8,453.4 207.0,453.7 207.0,454.1 207.0,454.6 207.2,454.9 207.3,455.3 207.4,455.7 207.5,456.1 207.7,456.5 207.9,456.9 208.0,457.4 208.2,457.8 208.4,458.2 208.7,458.6 208.9,458.9 209.2,459.3 209.5,459.6 209.7,460.0 209.9,460.4 210.1,460.7 210.4,461.1 210.7,461.5 211.2,461.9 211.5,462.3 212.0,462.6 212.4,463.1 212.8,463.4 213.3,463.9 213.7,464.4 214.2,464.8 214.7,465.1 215.2,465.7 216.0,466.1 216.5,466.5 217.0,466.9 217.5,467.2 217.9,467.5 218.4,467.8 218.9,468.1 219.5,468.4 220.0,468.7 220.6,469.0 221.2,469.7 223.1,470.0 223.8,470.6 225.7,470.9 226.5,471.1 227.6,471.3 228.7,471.6 229.6,471.7 230.6,471.8 231.5,472.0 232.5,472.2 233.4,472.5 234.3,472.7 235.2,472.8 236.2,473.1 237.2,473.2 238.2,473.3 239.2,473.3 240.2,473.4 241.1,473.4 242.0,473.4 243.5,473.4 244.1,473.5 245.5,473.6 246.1,473.8 247.0,473.8 247.8,473.9 248.5,473.9 249.3,474.1 250.1,474.1 250.9,474.2 252.0,474.2 252.9,474.2 254.4,474.3 254.9,474.4 255.6,474.4 256.3,474.5 257.0,474.6 257.7,474.7 258.4,474.7 259.3,475.0 260.7,475.1 262.1,475.2 263.5,475.4 264.8,475.5 266.2,475.7 267.5,475.9 268.6,476.0 269.7,476.2 270.6,476.4 271.6,476.7 272.5,476.9 273.5,477.3 274.5,477.6 275.8,477.8 277.1,478.1 279.2,478.2 280.8,478.4 282.2,478.6 283.5,478.6 284.7,478.8 285.7,478.9 286.6,479.1 287.5,479.3 288.4,479.5 289.2,479.8 290.2,480.0 291.6,480.3 292.7,480.6 293.7,480.7 294.7,481.0 295.5,481.2 296.2,481.5 296.9,481.7 297.5,482.1 298.3,482.4 298.9,482.9 299.7,483.3 300.5,483.9 301.4,484.4 302.4,484.9 303.5,485.5 304.6,486.6 306.7,487.7 308.7,488.3 309.5,488.9 310.5,489.7 311.5,490.4 312.5,491.5 314.0,492.5 315.2,493.3 316.5,494.2 317.7,495.9 319.9,496.5 320.8,497.4 321.8,499.0 323.6,499.6 324.2,500.4 325.1,501.2 326.0,502.0 326.7,502.7 327.5,503.6 328.4,505.8 330.6,506.3 331.1,507.2 331.9,508.1 332.4,510.7 333.9,511.3 334.3,512.1 334.8,512.8 335.2,513.5 335.6,514.1 335.9,514.6 336.2,515.2 336.6,515.7 336.9,516.5 337.2,517.0 337.4,517.5 337.6,517.9 337.8,518.3 338.0,518.7 338.2,519.1 338.3,519.7 338.5,520.1 338.6,520.6 338.9,521.0 339.1,521.4 339.3,521.7 339.5,522.3 339.8,522.7 339.9,523.1 340.1,523.4 340.4,523.8 340.6,524.2 340.9,524.7 341.2,525.0 341.4,525.5 341.7,526.0 342.0,526.5 342.3,526.9 342.4,527.4 342.5,527.8 342.6,528.2 342.8,528.6 342.9,529.1 342.9,529.6 343.0,530.2 343.0,531.1 343.0,531.5 343.0,535.7 343.0,536.9 342.9,537.4 342.8,538.1 342.7,539.0 342.6,539.5 342.4,539.9 342.4,540.3 342.3,540.6 341.9,541.0 341.7,541.3 341.5,541.7 341.4,542.0 340.9,542.5 340.4,543.1 340.0,543.8 339.3,544.5 338.7,545.3 338.1,546.0 337.6,547.1 336.7,547.4 336.3,547.8 335.9,548.2 335.5,548.6 335.1,548.9 334.7,549.4 334.2,549.7 334.0,550.0 333.7,550.5 333.5,550.9 333.3,551.4 333.0,552.5 332.4,553.1 332.1,553.7 331.6,554.4 331.3,555.1 330.8,555.8 330.3,557.3 329.4,557.8 329.1,559.1 328.4,559.4 328.3,559.9 327.9,560.4 327.4,560.8 326.8,561.3 326.3,561.8 325.7,562.4 325.2,562.8 324.7,563.3 324.3,563.7 323.9,564.1 323.7,564.4 323.4,564.7 323.1,565.4 322.5,566.0 322.1,566.5 321.7,567.0 321.4,567.5 321.0,567.9 320.8,568.2 320.6" style="fill:none;stroke:#a020f0;stroke-width:2"/>
<polyline points="229.5 349.3,228.4 349.3,227.2 349.0,225.7 348.7,225.1 348.7,224.4 348.7,221.2 348.6,220.8 348.4,219.9 348.3,219.2 348.1,218.7 348.0,218.0 347.9,217.3 347.8,216.5 347.7,215.8 347.7,215.1 347.6,214.5 347.6,213.9 347.6,212.7 347.6,212.2 347.5,211.6 347.4,210.9 347.2,210.3 347.0,208.7 346.5,208.1 346.3,207.3 346.0,206.7 345.8,206.2 345.5,205.6 345.2,205.2 344.8,204.8 344.5,204.3 344.2,204.0 343.9,203.6 343.6,203.3 343.3,203.0 343.0,202.6 342.8,202.3 342.6,202.0 342.3,201.6 342.2,201.3 342.0,200.7 341.9,200.3 341.7,199.9 341.6,199.5 341.5" style="fill:none;stroke:#a020f0;stroke-width:2"/>
<polyline points="578.9 318.7,578.0 319.9,578.0 321.0,578.3 322.4,578.4 322.7,578.6 323.1,578.9 323.4,579.2 323.9,579.8 324.3,580.5 324.5,581.4 324.7,582.2 324.6,583.0 324.4,584.0 324.1,584.8 323.7,585.6 323.1,586.3 322.4,586.9 321.6,587.3 320.8,587.6 319.3,587.8 318.1,587.9 316.9,587.8 315.8,587.5 314.6,587.1 313.6,586.6 312.7,586.0 311.9,585.5 311.4,584.9 311.0,584.5 310.6,584.1 310.4,583.9 310.2,584.3 309.8,584.6 309.6,585.0 309.4,585.3 309.2,585.8 309.1,586.1 309.0,586.6 309.0,587.1 308.9,587.6 309.0,588.0 309.2,588.5 309.5,589.0 309.8,589.4 310.2,589.8 310.5,590.2 310.9,590.6 311.4,591.0 312.0,591.2 312.5,591.4 312.9" style="fill:none;stroke:#a020f0;stroke-width:2"/>
<polyline points="599.8 313.4,599.8 315.9,600.1 317.6,600.3 318.7,600.5 318.9,600.8 319.5,601.0 320.4,601.3 321.2,601.4 321.9,601.5 322.6,601.6 323.2,601.7 323.9" style="fill:none;stroke:#a020f0;stroke-width:2"/>
<polyline points="604.9 302.1,604.9 303.6,604.1 302.8" style="fill:none;stroke:#a020f0;stroke-width:2"/>
<polyline points="611.1 314.2,611.1 317.3,611.2 318.6,611.5 317.5,611.9 316.5,612.2 315.6,612.5 314.9,612.9 314.3,613.4 313.9,613.8 313.6,614.2 313.4,614.7 313.3,615.4 313.5,616.2 314.5,616.9 315.5,617.5 316.6,618.0 317.7,618.5 318.7,618.9 319.6,619.2 320.3,619.4 320.9,619.7 321.3,619.8 321.7,620.2 321.9,620.6 322.0,620.9 321.7,621.4 321.1" style="fill:none;stroke:#a020f0;stroke-width:2"/>
<polyline points="627.2 293.6,629.7 291.6,630.6 292.2,630.9 293.9,630.8 294.1,630.6 295.4,630.3 296.3,629.7 297.4,629.1 298.3,628.5 299.2,628.0 299.9,627.5 300.4,627.1 300.9,627.0 301.8,627.5 302.1,627.9 302.5,628.5 302.8,629.2 303.1,630.4 303.2,631.4 303.3,632.4 303.2,633.5 303.0,634.5 302.6,635.4 302.1,636.2 301.6,636.9 301.2,637.3 300.7" style="fill:none;stroke:#a020f0;stroke-width:2"/>
<polyline points="613.1 212.5,612.2 213.3,611.9 214.5,611.9 215.6,612.4 215.4,612.9 215.5,613.3 215.5,613.9 215.3,614.4 215.0,614.9 214.5,615.2 214.0,615.5 213.5,615.6 213.2,615.3 212.8,614.9 212.5,614.4 212.3,613.9 212.2,613.5 212.1,613.2 212.2" style="fill:none;stroke:#ffff00;stroke-width:2"/>
<polyline points="594.1 423.3,593.3 423.9,592.7 424.7,592.1 426.1,592.0 426.7,591.9 427.6,591.6 428.4,591.5 429.2,591.5 430.0,591.5 431.0,591.7 431.6,592.1 432.2,592.5 432.6,593.2 433.0,594.1 433.4,594.9 433.6,595.9 433.7,596.9 433.8,597.9 433.9,599.2 433.7,600.3 433.4,601.1 433.0,601.8 432.6,602.3 432.1,602.6 431.6,602.8 431.1,602.9 430.7,602.8 430.1,602.5 429.6,601.9 429.1,601.2 428.4,600.1 427.6,599.2 426.7,598.3 425.9,597.5 425.1,596.9 424.2,596.5 423.4,596.2 422.7,595.9 422.0,595.8 421.5,595.7 421.0,595.8 420.5,596.0 420.1,596.4 419.9,596.8 419.7,597.4 419.6,598.1 419.5,598.7 419.4,599.5 419.4,600.2 419.3,601.0 419.2,601.9 419.2,602.5 419.0,603.0 418.9,603.5 418.9,604.0 418.7,604.4 418.5" style="fill:none;stroke:#a020f0;stroke-width:2"/>
<polyline points="614.5 418.8,614.8 421.3,614.8 422.5,615.0 423.6,615.1 424.0,615.2 424.9,615.2 425.9,615.4 426.9,615.6 428.3,615.7 429.3,615.9 430.2,616.0 430.9,616.2 431.5,616.4 431.9" style="fill:none;stroke:#a020f0;stroke-width:2"/>
<polyline points="620.7 411.7,620.7 413.2,619.9 412.5" style="fill:none;stroke:#a020f0;stroke-width:2"/>
<polyline points="625.8 421.6,625.8 424.7,626.1 427.8,626.0 428.3,626.0 428.9,626.1 429.3,626.1 428.2,626.2 427.6,626.5 426.9,626.7 426.1,627.1 425.3,627.4 424.5,627.9 423.8,628.5 423.1,628.8 422.7,629.1 422.4,629.6 422.3,630.0 422.1,630.6 422.3,631.2 422.7,631.9 423.2,632.7 423.9,633.4 424.7,634.3 425.5,635.0 426.5,635.6 427.5,636.2 428.4,636.7 429.3,637.2 430.2,637.5 431.1,637.9 431.8,638.5 433.0,638.6 433.4,638.9 433.7,639.4 433.9" style="fill:none;stroke:#a020f0;stroke-width:2"/>
<polyline points="643.3 403.2,644.2 402.4,644.7 403.2,644.7 404.4,644.7 404.8,644.6 405.2,644.4 405.6,644.2 406.0,644.0 406.6,643.7 407.0,643.5 407.5,643.2 407.9,643.1 408.2,642.8 408.7,642.7 409.1,642.6 409.4,642.6 409.8,642.5 410.2,642.6 410.7,642.8 411.0,643.1 411.5,643.4 411.7,643.9 411.9,644.5 412.0,645.6 412.1,646.5 412.2,647.2 412.1,648.0 412.1,648.5 411.9,649.0 411.7,649.4 411.4,650.1 410.4" style="fill:none;stroke:#a020f0;stroke-width:2"/>
<polyline points="669.6 412.8,666.5 413.7,664.5 416.0,663.4 417.9,663.5 418.1,663.1 418.9,662.8 419.8,662.5 420.9,662.1 422.1,661.7 423.3,661.4 424.7,661.2 425.9,661.1 427.0,661.0 428.0,661.1 428.9,661.3 429.7,662.3 430.5,663.2 430.9,664.3 431.2,665.4 431.3,666.5 431.1,667.7 430.8,668.8 430.3,669.9 429.8,670.9 429.2,671.8 428.5,672.8 427.6,673.9 426.1,674.7 424.6,675.4 423.1,675.9 421.6,676.3 420.3,676.5 419.1,676.5 418.0,676.3 417.0,676.0 416.1,675.5 415.2,675.0 414.5,674.0 413.5,673.3 412.7,672.4 412.0,671.7 411.5,671.0 411.1,670.2 410.8,669.2 410.9,668.2 411.2,667.2 411.7,666.1 412.5,664.9 413.7,664.1 414.7,663.6 415.4,663.2 416.1,663.1 416.6,663.4 417.1,663.8 417.5,664.5 417.8,665.5 418.1,668.2 418.5,670.5 418.4,672.7 418.1,674.9 417.7,676.9 417.2,678.7 416.6,680.2 416.1,681.3 415.5,682.2 415.1,682.9 414.6,683.4 414.2" style="fill:none;stroke:#a020f0;stroke-width:2"/>
<polyline points="697.3 425.3,700.1 425.6,701.5 425.6,706.6 425.6,709.7 425.7,709.8 425.7,710.8 426.0" style="fill:none;stroke:#a020f0;stroke-width:2"/>
<polyline points="695.0 434.9,697.6 435.7,698.7 436.0,700.1 436.3,701.6 436.6,703.5 436.8,705.1 436.9,706.7 437.0,707.9 437.0,709.1 437.1,710.1 437.1,711.6 437.0" style="fill:none;stroke:#a020f0;stroke-width:2"/>
<polyline points="743.1 409.5,744.2 408.9,744.8 408.0,745.6 407.2,745.7 407.0,746.3 406.4,746.9 405.8,747.7 404.9,748.9 403.5,750.0 402.4,750.8 401.4,751.6 400.7,752.0 400.1,752.5 399.7,752.7 399.5,752.9 399.9,753.1 400.7,753.3 401.7,753.4 403.2,753.4 404.9,753.5 406.7,753.5 410.7,753.4 412.4,753.2 414.4,753.2 416.2,753.0 417.7,752.9 419.1,752.7 420.0,752.6 420.9,752.5 421.4,752.5 421.7" style="fill:none;stroke:#a020f0;stroke-width:2"/>
<polyline points="764.6 417.9,770.9 418.1,771.9 418.2,772.8 418.4,773.8 418.5,774.8 418.7,775.5 418.8,776.8 419.0,777.0 419.0,777.4 418.9" style="fill:none;stroke:#a020f0;stroke-width:2"/>
<polyline points="803.3 410.6,800.5 410.0,799.1 411.2,797.6 412.6,797.6 412.7,797.2 413.3,796.9 414.0,796.5 414.6,796.2 415.3,795.9 415.9,795.7 416.5,795.6 417.3,795.8 417.9,796.1 418.4,796.6 418.8,797.3 419.2,798.2 419.6,799.3 419.8" style="fill:none;stroke:#a020f0;stroke-width:2"/>
<polyline points="814.9 416.2,812.3 417.4,811.5 418.5,811.5 419.6,812.0 420.0,812.5 420.6,813.8 421.3,815.0 421.7,816.2 421.9,817.3 422.1,818.4 422.2,819.5 422.1,820.4 421.7,821.4 421.1,822.3 420.5,823.1 419.7,823.7 419.0,824.0 418.1,824.3 417.3,824.2 416.6,823.9 416.1,823.1 415.7,822.3 415.3,821.2 415.0,820.0 414.9,818.9 414.8,817.9 414.7,817.0 414.6,816.4 414.2,816.8 413.7,817.4 413.2,818.0 412.5,818.9 411.8,819.8 411.1,820.8 410.5,821.8 409.9,822.8 409.6,823.8 409.4,824.8 409.2,826.4 409.6,827.1 410.0,827.9 410.4,828.7 410.9,829.4 411.4,830.2 412.0,831.0 412.7,831.8 413.6,833.0 414.9,833.9 416.1,834.5 417.2,835.1 418.1,835.4 419.0,835.6 419.8,835.7 420.5,835.5 421.2,835.0 421.9,834.5 422.4,834.1 422.7,833.6 422.6,833.2 422.2,832.9 421.5" style="fill:none;stroke:#a020f0;stroke-width:2"/>
<polyline points="852.2 397.3,853.3 396.5,855.3 396.2,856.4 396.2,856.8 396.2,857.4 396.4,857.9 396.8,858.1 397.2,858.3 397.8,858.2 399.0,857.7 400.1,857.0 401.2,856.2 402.4,855.2 403.5,854.2 404.5,853.3 405.3,852.5 406.2,851.8 407.1,851.1 407.8,850.7 408.6,850.5 409.4,850.3 410.3,850.2 411.1,850.1 411.9,850.2 412.8,850.4 413.6,850.8 414.5,851.3 415.2,851.9 415.9,852.7 416.4,853.4 416.8,854.3 417.2,855.2 417.5,856.0 417.6,857.0 417.7,857.8 417.8,858.4 417.8,859.0 417.9,859.7 417.7,860.5 417.2,861.4 416.6,862.4 416.0" style="fill:none;stroke:#a020f0;stroke-width:2"/>
<polyline points="879.3 400.1,876.8 400.1,875.4 400.4,874.0 402.1,873.8 402.2,873.3 403.0,873.0 403.7,872.6 404.6,872.4 405.5,872.3 406.7,872.2 407.8,872.1 409.0,872.3 410.2,872.7 411.3,873.7 412.5,874.6 413.4,875.7 414.0,876.8 414.5,878.0 414.8,879.3 414.9,880.7 414.7,881.9 414.3,883.1 413.8,884.2 412.9,885.2 411.9,886.2 410.2,886.9 408.9,887.4 407.4,887.7 406.3,887.8 405.1,887.7 404.0,887.3 402.9,886.6 401.9,885.8 401.0,884.8 400.2,883.6 399.6,882.0 399.0,880.7 398.6,879.6 398.2,878.7 398.0,878.1 397.9,877.6 397.8,877.4 398.2,877.3 398.7,877.9 399.7,878.8 400.6,879.9 401.3,881.2 402.0,882.7 402.5,884.2 402.8,885.8 403.1,887.6 403.1,889.4 402.9,891.2 402.5,892.8 401.9" style="fill:none;stroke:#a020f0;stroke-width:2"/>
<polyline points="749.3 434.0,748.2 434.0,749.3 434.0,752.0 434.2,752.3 434.2,753.1 434.3,753.8 434.3,754.4 434.3,755.7 434.3,756.4 434.4,757.1 434.5,757.9 434.5,758.6 434.6,759.5 434.6,760.6 434.7,761.6 434.8,762.5 434.9,763.2 435.0,764.0 435.1,765.2 435.2,765.7 435.3,766.2 435.4,766.7 435.4,767.3 435.4,767.8 435.4,768.7 435.4,771.6 435.3,772.2 435.3,773.4 435.2,775.3 435.2,776.1 435.3,777.4 435.6,778.4 435.9,781.2 436.3,781.8 436.3,783.1 436.4,784.4 436.5,785.7 436.5,787.2 436.5,792.2 436.6,797.4 436.6,801.7 436.6,805.8 436.6,810.0 436.7,814.1 436.8,816.5 436.8,820.9 436.7,822.4 436.7,824.3 436.6,828.3 436.6,832.6 436.6,836.9 436.6,839.2 436.5,840.4 436.4,841.9 436.4,843.5 436.4,848.0 436.4,849.4 436.5,851.4 436.5,856.6 436.6,862.3 436.6,866.5 436.7,867.4 436.8,868.9 436.8,871.6 436.8,872.9 436.8,877.6 436.9,881.6 437.0,882.4 437.0,883.8 437.1,885.0 437.2,886.1 437.3,887.9 437.4,888.5 437.4,890.4 437.2,890.4 436.8,890.5 436.4" style="fill:none;stroke:#a020f0;stroke-width:2"/>
<polyline points="812.9 451.8,813.5 450.4,814.9 449.3,815.7 448.7,815.9 448.6,816.6 448.3,817.3 448.1,818.1 447.9,818.9 447.8,819.4 447.7,820.0 447.7,820.6 447.8,821.2 448.4,821.7 448.9,821.9 449.5,822.1 450.0,822.3 450.7,822.2 451.3,822.0 452.0,821.7 452.8,821.0 453.6,820.3 454.4,819.3 455.3,817.7 456.6,815.2 458.4,814.2 459.0,811.8 460.4,811.0 460.7,810.0 461.2,809.4 461.5,809.0 461.7,808.7 461.9,809.0 462.3,809.4 462.7,810.0 463.2,810.8 463.7,811.8 464.2,813.5 464.9,814.9 465.5,816.9 466.1,820.0 466.8,821.1 466.9,824.0 467.2,824.9 467.2,827.3 467.2,828.1 466.9,829.1 466.6,830.2 465.7,831.1 464.8,831.7 463.8,832.1 462.8" style="fill:none;stroke:#a020f0;stroke-width:2"/>
</svg>